<?xml version="1.0" encoding="utf-8"?>
<!-- Generator: Adobe Illustrator 27.5.0, SVG Export Plug-In . SVG Version: 6.00 Build 0)  -->
<svg version="1.1" xmlns="http://www.w3.org/2000/svg" xmlns:xlink="http://www.w3.org/1999/xlink" x="0px" y="0px"
	 viewBox="0 0 500 500" style="enable-background:new 0 0 500 500;" xml:space="preserve">
<g id="Background_Complete">
	<g>
		<polygon style="fill:#E0E0E0;" points="339.204,367.825 336.941,465.634 332.626,465.634 332.9,368.07 		"/>
		<polygon style="fill:#E0E0E0;" points="354.784,366.74 375.759,465.634 380.565,465.634 363.105,366.74 		"/>
		<polygon style="fill:#E0E0E0;" points="315.467,367.825 292.256,465.634 287.45,465.634 308.511,367.425 		"/>
		<g>
			<g>
				<g>
					<g>
						<g>
							<path style="fill:#F5F5F5;" d="M376.325,267.858c0,0,25.136-1.435,22.623,27.651c-2.514,29.086-3.951,58.53-13.286,68.585
								c-9.337,10.055-103.417,10.413-111.317,2.154c-7.9-8.258,15.082-7.899,19.392-7.899c4.308,0,30.881,2.513,39.499-20.109
								C341.853,315.617,339.699,266.423,376.325,267.858z"/>
						</g>
						<g>
							<path style="fill:#E0E0E0;" d="M377.938,267.874c0,0,19.216,3.935,17.419,24.044c-1.795,20.109-6.823,55.298-16.158,64.275
								c-9.337,8.978-45.919,10.934-65.713,9.696c-22.981-1.437-37.488-5.812-37.488-5.812s-4.194,2.697-2.923,4.435
								c1.27,1.736,12.474,8.724,66.794,7.56c54.318-1.164,50.542-9.179,52.797-17.933c2.255-8.755,6.986-55.429,6.329-65.692
								C398.34,278.184,393.17,269.674,377.938,267.874z"/>
						</g>
					</g>
				</g>
				<g>
					<path style="fill:#EBEBEB;" d="M362.172,307.02c0,1.472,0.932,2.665,2.082,2.665c1.15,0,2.082-1.193,2.082-2.665
						c0-1.472-0.932-2.665-2.082-2.665C363.104,304.355,362.172,305.549,362.172,307.02z"/>
				</g>
				<g>
					<g>
						<path style="fill:#EBEBEB;" d="M363.593,295.247c0.132,0.045-0.672,1.439-0.708,3.877c-0.011,1.204,0.222,2.654,0.919,4.079
							c0.346,0.701,0.803,1.436,1.369,2.039c0.292,0.309,0.653,0.608,0.959,1.04c0.32,0.421,0.472,1.059,0.355,1.597
							c-0.226,1.06-0.796,1.818-1.065,2.607c-0.241,0.763-0.317,1.645-0.31,2.42c0.021,1.586,0.49,2.978,1.047,4.044
							c1.158,2.146,2.523,3.001,2.427,3.103c-0.024,0.035-0.378-0.135-0.929-0.578c-0.545-0.444-1.289-1.176-1.943-2.275
							c-0.647-1.091-1.206-2.567-1.266-4.276c-0.019-0.86,0.024-1.725,0.307-2.671c0.312-0.899,0.862-1.688,1.022-2.5
							c0.193-0.795-0.458-1.359-1.116-2.025c-0.647-0.709-1.093-1.469-1.457-2.242c-0.715-1.548-0.907-3.113-0.828-4.38
							c0.077-1.275,0.385-2.271,0.666-2.916C363.322,295.544,363.554,295.227,363.593,295.247z"/>
					</g>
				</g>
				<g>
					<g>
						<path style="fill:#EBEBEB;" d="M357.899,303.57c0.116,0.018,0.027,0.628,0.292,1.516c0.249,0.88,0.933,2.033,2.091,2.82
							c1.171,0.787,2.475,1.079,3.413,1.219c0.946,0.139,1.555,0.162,1.561,0.269c0.007,0.09-0.596,0.251-1.603,0.239
							c-0.992-0.014-2.446-0.239-3.775-1.13c-1.334-0.905-2.04-2.284-2.185-3.305C357.535,304.158,357.825,303.544,357.899,303.57z"
							/>
					</g>
				</g>
			</g>
		</g>
	</g>
	<g>
		<polygon style="fill:#E0E0E0;" points="419.789,466.495 423.536,466.493 417.606,323.11 413.866,323.305 		"/>
		<g>
			<polygon style="fill:#E0E0E0;" points="211.681,466.656 215.418,466.885 222.463,323.481 218.725,323.253 			"/>
			<polygon style="fill:#E0E0E0;" points="246.532,467.573 250.27,467.802 257.124,325.417 253.386,325.188 			"/>
			<polygon style="fill:#E0E0E0;" points="443.224,466.494 446.971,466.494 440.961,323.241 437.221,323.436 			"/>
			<g>
				<g>
					<g>
						<g>
							<rect x="205.317" y="321.563" style="fill:#E0E0E0;" width="245.522" height="7.382"/>
						</g>
					</g>
				</g>
			</g>
		</g>
	</g>
	<g>
		<g>
			<polygon style="fill:#EBEBEB;" points="224.202,274.363 241.75,320.718 321.208,320.718 320.623,318.331 288.493,317.433 
				273.691,274.338 			"/>
		</g>
		<g>
			<path style="fill:#FFFFFF;" d="M259.412,297.493c0.525,1.899-0.375,3.759-2.01,4.155c-1.635,0.396-3.385-0.824-3.91-2.723
				c-0.524-1.899,0.375-3.759,2.01-4.155C257.137,294.375,258.888,295.593,259.412,297.493z"/>
		</g>
	</g>
</g>
<g id="Background_Simple" style="display:none;">
	<path style="display:inline;fill:#F5F5F5;" d="M411.423,90.672c25.229,50.27,17.249,113.725-14.284,160.301
		c-31.533,46.576-83.993,76.731-139.157,87.712c-39.378,7.838-81.74,6.242-117.72-11.576c-35.98-17.819-64.272-53.667-66.429-93.76
		c-0.815-15.143,2.397-31.224,12.503-42.531c16.136-18.055,43.683-18.691,67.887-17.946s51.732,0.18,67.948-17.804
		c12.459-13.819,14.294-33.863,20.859-51.273c11.164-29.602,38.097-52.715,69.049-59.258c4.299-0.909,8.657-1.494,13.033-1.767
		c34.044-2.126,66.334,15.393,84.193,44.454L411.423,90.672z"/>
</g>
<g id="Floor">
	<g>
		<g>
			<path style="fill:#263238;" d="M460.148,466.494c0,0.153-95.647,0.276-213.606,0.276c-118,0-213.626-0.124-213.626-0.276
				c0-0.152,95.626-0.276,213.626-0.276C364.501,466.218,460.148,466.342,460.148,466.494z"/>
		</g>
	</g>
</g>
<g id="Documents">
	<g>
		<g>
			
				<rect x="336.002" y="87.309" transform="matrix(-1 -1.224647e-16 1.224647e-16 -1 699.9891 213.1541)" style="fill:#EBEBEB;" width="27.986" height="38.536"/>
		</g>
		<g>
			<g>
				<path style="fill:#263238;" d="M359.592,95.067c0,0.058-2.004,0.104-4.475,0.104c-2.472,0-4.475-0.047-4.475-0.104
					c0-0.057,2.003-0.104,4.475-0.104C357.589,94.963,359.592,95.01,359.592,95.067z"/>
			</g>
		</g>
		<g>
			<g>
				<path style="fill:#263238;" d="M355.117,100.123c0,0.058-1.002,0.104-2.237,0.104c-1.236,0-2.238-0.047-2.238-0.104
					c0-0.057,1.002-0.104,2.238-0.104C354.115,100.019,355.117,100.066,355.117,100.123z"/>
			</g>
		</g>
		<g>
			<g>
				<path style="fill:#263238;" d="M344.351,101.588c0,0.058-1.002,0.104-2.237,0.104c-1.236,0-2.238-0.047-2.238-0.104
					c0-0.057,1.002-0.104,2.238-0.104C343.349,101.484,344.351,101.531,344.351,101.588z"/>
			</g>
		</g>
		<g>
			<g>
				<path style="fill:#263238;" d="M346.653,103.739c0,0.058-1.517,0.104-3.388,0.104c-1.872,0-3.389-0.047-3.389-0.104
					c0-0.057,1.517-0.104,3.389-0.104C345.136,103.635,346.653,103.682,346.653,103.739z"/>
			</g>
		</g>
		<g>
			<g>
				<path style="fill:#263238;" d="M344.351,107.407c0,0.058-1.002,0.104-2.237,0.104c-1.236,0-2.238-0.047-2.238-0.104
					c0-0.058,1.002-0.104,2.238-0.104C343.349,107.303,344.351,107.35,344.351,107.407z"/>
			</g>
		</g>
		<g>
			<g>
				<path style="fill:#263238;" d="M346.653,109.559c0,0.058-1.517,0.104-3.388,0.104c-1.872,0-3.389-0.047-3.389-0.104
					c0-0.058,1.517-0.104,3.389-0.104C345.136,109.454,346.653,109.501,346.653,109.559z"/>
			</g>
		</g>
		<g>
			<g>
				<path style="fill:#263238;" d="M344.351,112.958c0,0.058-1.002,0.104-2.237,0.104c-1.236,0-2.238-0.047-2.238-0.104
					c0-0.057,1.002-0.104,2.238-0.104C343.349,112.854,344.351,112.901,344.351,112.958z"/>
			</g>
		</g>
		<g>
			<g>
				<path style="fill:#263238;" d="M346.653,115.109c0,0.058-1.517,0.104-3.388,0.104c-1.872,0-3.389-0.047-3.389-0.104
					c0-0.057,1.517-0.104,3.389-0.104C345.136,115.005,346.653,115.052,346.653,115.109z"/>
			</g>
		</g>
		<g>
			<g>
				<path style="fill:#263238;" d="M360.841,103.87c0,0.057-2.283,0.104-5.099,0.104c-2.817,0-5.1-0.047-5.1-0.104
					c0-0.058,2.283-0.104,5.1-0.104C358.558,103.766,360.841,103.813,360.841,103.87z"/>
			</g>
		</g>
		<g>
			<g>
				<path style="fill:#263238;" d="M354.684,107.616c0,0.058-0.905,0.104-2.021,0.104c-1.116,0-2.021-0.047-2.021-0.104
					c0-0.058,0.905-0.104,2.021-0.104C353.779,107.512,354.684,107.559,354.684,107.616z"/>
			</g>
		</g>
		<g>
			<g>
				<path style="fill:#263238;" d="M360.841,111.363c0,0.058-2.283,0.104-5.099,0.104c-2.817,0-5.1-0.047-5.1-0.104
					s2.283-0.104,5.1-0.104C358.558,111.259,360.841,111.305,360.841,111.363z"/>
			</g>
		</g>
		<g>
			<g>
				<path style="fill:#263238;" d="M360.841,115.109c0,0.058-2.283,0.104-5.099,0.104c-2.817,0-5.1-0.047-5.1-0.104
					c0-0.057,2.283-0.104,5.1-0.104C358.558,115.005,360.841,115.052,360.841,115.109z"/>
			</g>
		</g>
		<g>
			<g>
				<path style="fill:#263238;" d="M360.308,119.035c0,0.058-2.283,0.104-5.099,0.104c-2.817,0-5.1-0.047-5.1-0.104
					c0-0.057,2.283-0.104,5.1-0.104C358.025,118.931,360.308,118.977,360.308,119.035z"/>
			</g>
		</g>
		<g>
			<g>
				<g>
					<path style="fill:#263238;" d="M347.353,98.834c0,0-0.013-0.196-0.021-0.544c-0.007-0.429-0.014-0.922-0.024-1.495
						c-0.012-1.396-0.028-3.18-0.046-5.269l0.09,0.09c-2.157,0.004-4.648,0.009-7.307,0.014c-0.024,0.022,0.197-0.197,0.103-0.103
						v0.002v0.004v0.008v0.016v0.031l0,0.063v0.125v0.249l0,0.495c0,0.329,0,0.655-0.001,0.977
						c-0.001,0.644-0.002,1.274-0.003,1.889c-0.004,1.219-0.007,2.374-0.01,3.447l-0.09-0.09c2.09,0.018,3.874,0.034,5.269,0.046
						c0.573,0.009,1.066,0.017,1.495,0.023C347.157,98.821,347.353,98.834,347.353,98.834s-0.169,0.013-0.507,0.021
						c-0.423,0.007-0.909,0.015-1.474,0.023c-1.411,0.012-3.214,0.028-5.327,0.046l-0.09,0.001l0-0.091
						c-0.003-1.073-0.007-2.228-0.01-3.447c-0.001-0.615-0.002-1.245-0.003-1.889c0-0.323,0-0.648-0.001-0.977l0-0.495v-0.249
						v-0.125v-0.063v-0.031v-0.016v-0.008v-0.004v-0.002c-0.093,0.092,0.127-0.128,0.105-0.105c2.659,0.005,5.15,0.01,7.307,0.014
						l0.091,0l-0.001,0.09c-0.018,2.112-0.034,3.916-0.046,5.326c-0.009,0.565-0.017,1.052-0.023,1.475
						C347.367,98.665,347.353,98.834,347.353,98.834z"/>
				</g>
			</g>
			<g>
				<g>
					<path style="fill:#263238;" d="M347.353,94.811c-0.009,0.013-0.146-0.067-0.384-0.221c-0.339-0.229-0.669-0.451-0.995-0.67
						l0.099-0.007c-0.747,0.722-1.469,1.42-2.249,2.173l-0.053,0.05l-0.063,0.06l-0.07-0.05c-0.469-0.339-0.919-0.664-1.366-0.987
						l0.119-0.005c-0.551,0.457-1.099,0.911-1.668,1.383c-0.414,0.334-0.664,0.521-0.678,0.504
						c-0.014-0.017,0.208-0.235,0.601-0.594c0.553-0.492,1.085-0.965,1.619-1.441l0.056-0.05l0.063,0.045
						c0.449,0.319,0.902,0.64,1.375,0.975l-0.132,0.009l0.053-0.05c0.793-0.741,1.526-1.427,2.285-2.136l0.049-0.046l0.051,0.039
						c0.313,0.238,0.629,0.479,0.955,0.726C347.243,94.695,347.362,94.799,347.353,94.811z"/>
				</g>
			</g>
			<g>
				<g>
					<path style="fill:#263238;" d="M344.513,93.236c-0.039,0.016-0.008-0.358-0.395-0.646c-0.185-0.135-0.48-0.205-0.761-0.096
						c-0.279,0.1-0.516,0.397-0.513,0.742c-0.003,0.345,0.234,0.642,0.513,0.743c0.281,0.109,0.576,0.038,0.761-0.096
						C344.505,93.593,344.474,93.219,344.513,93.236c0.013-0.025,0.122,0.383-0.305,0.763c-0.206,0.175-0.562,0.284-0.916,0.16
						c-0.351-0.112-0.66-0.485-0.656-0.923c-0.004-0.438,0.305-0.81,0.656-0.923c0.354-0.124,0.71-0.016,0.916,0.16
						C344.635,92.853,344.525,93.261,344.513,93.236z"/>
				</g>
			</g>
		</g>
	</g>
	<g>
		<g>
			
				<rect x="123.763" y="87.309" transform="matrix(-1 -1.224647e-16 1.224647e-16 -1 275.5114 213.1541)" style="fill:#EBEBEB;" width="27.986" height="38.536"/>
		</g>
		<g>
			<g>
				<path style="fill:#263238;" d="M147.353,95.067c0,0.058-2.004,0.104-4.475,0.104c-2.472,0-4.475-0.047-4.475-0.104
					c0-0.057,2.003-0.104,4.475-0.104C145.35,94.963,147.353,95.01,147.353,95.067z"/>
			</g>
		</g>
		<g>
			<g>
				<path style="fill:#263238;" d="M142.878,100.123c0,0.058-1.002,0.104-2.237,0.104c-1.236,0-2.238-0.047-2.238-0.104
					c0-0.057,1.002-0.104,2.238-0.104C141.876,100.019,142.878,100.066,142.878,100.123z"/>
			</g>
		</g>
		<g>
			<g>
				<path style="fill:#263238;" d="M132.112,101.588c0,0.058-1.002,0.104-2.237,0.104c-1.236,0-2.238-0.047-2.238-0.104
					c0-0.057,1.002-0.104,2.238-0.104C131.11,101.484,132.112,101.531,132.112,101.588z"/>
			</g>
		</g>
		<g>
			<g>
				<path style="fill:#263238;" d="M134.414,103.739c0,0.058-1.517,0.104-3.389,0.104c-1.872,0-3.389-0.047-3.389-0.104
					c0-0.057,1.517-0.104,3.389-0.104C132.897,103.635,134.414,103.682,134.414,103.739z"/>
			</g>
		</g>
		<g>
			<g>
				<path style="fill:#263238;" d="M132.112,107.407c0,0.058-1.002,0.104-2.237,0.104c-1.236,0-2.238-0.047-2.238-0.104
					c0-0.058,1.002-0.104,2.238-0.104C131.11,107.303,132.112,107.35,132.112,107.407z"/>
			</g>
		</g>
		<g>
			<g>
				<path style="fill:#263238;" d="M134.414,109.559c0,0.058-1.517,0.104-3.389,0.104c-1.872,0-3.389-0.047-3.389-0.104
					c0-0.058,1.517-0.104,3.389-0.104C132.897,109.454,134.414,109.501,134.414,109.559z"/>
			</g>
		</g>
		<g>
			<g>
				<path style="fill:#263238;" d="M132.112,112.958c0,0.058-1.002,0.104-2.237,0.104c-1.236,0-2.238-0.047-2.238-0.104
					c0-0.057,1.002-0.104,2.238-0.104C131.11,112.854,132.112,112.901,132.112,112.958z"/>
			</g>
		</g>
		<g>
			<g>
				<path style="fill:#263238;" d="M134.414,115.109c0,0.058-1.517,0.104-3.389,0.104c-1.872,0-3.389-0.047-3.389-0.104
					c0-0.057,1.517-0.104,3.389-0.104C132.897,115.005,134.414,115.052,134.414,115.109z"/>
			</g>
		</g>
		<g>
			<g>
				<path style="fill:#263238;" d="M148.602,103.87c0,0.057-2.283,0.104-5.099,0.104c-2.817,0-5.1-0.047-5.1-0.104
					c0-0.058,2.283-0.104,5.1-0.104C146.319,103.766,148.602,103.813,148.602,103.87z"/>
			</g>
		</g>
		<g>
			<g>
				<path style="fill:#263238;" d="M142.445,107.616c0,0.058-0.905,0.104-2.021,0.104c-1.116,0-2.021-0.047-2.021-0.104
					c0-0.058,0.905-0.104,2.021-0.104C141.54,107.512,142.445,107.559,142.445,107.616z"/>
			</g>
		</g>
		<g>
			<g>
				<path style="fill:#263238;" d="M148.602,111.363c0,0.058-2.283,0.104-5.099,0.104c-2.817,0-5.1-0.047-5.1-0.104
					s2.283-0.104,5.1-0.104C146.319,111.259,148.602,111.305,148.602,111.363z"/>
			</g>
		</g>
		<g>
			<g>
				<path style="fill:#263238;" d="M148.602,115.109c0,0.058-2.283,0.104-5.099,0.104c-2.817,0-5.1-0.047-5.1-0.104
					c0-0.057,2.283-0.104,5.1-0.104C146.319,115.005,148.602,115.052,148.602,115.109z"/>
			</g>
		</g>
		<g>
			<g>
				<path style="fill:#263238;" d="M148.069,119.035c0,0.058-2.283,0.104-5.099,0.104c-2.817,0-5.1-0.047-5.1-0.104
					c0-0.057,2.283-0.104,5.1-0.104C145.786,118.931,148.069,118.977,148.069,119.035z"/>
			</g>
		</g>
		<g>
			<g>
				<g>
					<path style="fill:#263238;" d="M135.115,98.834c0,0-0.013-0.196-0.021-0.544c-0.007-0.429-0.015-0.922-0.024-1.495
						c-0.012-1.396-0.028-3.18-0.046-5.269l0.09,0.09c-2.157,0.004-4.648,0.009-7.307,0.014c-0.023,0.022,0.197-0.197,0.104-0.103
						v0.002v0.004v0.008v0.016v0.031v0.063v0.125l0,0.249l0,0.495c0,0.329-0.001,0.655-0.001,0.977
						c-0.001,0.644-0.002,1.274-0.003,1.889c-0.004,1.219-0.007,2.374-0.01,3.447l-0.09-0.09c2.09,0.018,3.874,0.034,5.269,0.046
						c0.573,0.009,1.066,0.017,1.495,0.023C134.918,98.821,135.115,98.834,135.115,98.834s-0.169,0.013-0.507,0.021
						c-0.423,0.007-0.909,0.015-1.474,0.023c-1.411,0.012-3.214,0.028-5.327,0.046l-0.09,0.001l0-0.091
						c-0.003-1.073-0.007-2.228-0.01-3.447c-0.001-0.615-0.002-1.245-0.003-1.889c0-0.323,0-0.648-0.001-0.977l0-0.495v-0.249
						v-0.125v-0.063v-0.031v-0.016v-0.008v-0.004v-0.002c-0.093,0.092,0.127-0.128,0.105-0.105c2.659,0.005,5.15,0.01,7.307,0.014
						l0.091,0l-0.001,0.09c-0.018,2.112-0.034,3.916-0.046,5.326c-0.009,0.565-0.017,1.052-0.024,1.475
						C135.128,98.665,135.115,98.834,135.115,98.834z"/>
				</g>
			</g>
			<g>
				<g>
					<path style="fill:#263238;" d="M135.115,94.811c-0.009,0.013-0.146-0.067-0.384-0.221c-0.339-0.229-0.669-0.451-0.995-0.67
						l0.099-0.007c-0.747,0.722-1.469,1.42-2.249,2.173l-0.053,0.05l-0.063,0.06l-0.07-0.05c-0.469-0.339-0.919-0.664-1.366-0.987
						l0.119-0.005c-0.551,0.457-1.099,0.911-1.669,1.383c-0.414,0.334-0.664,0.521-0.678,0.504
						c-0.014-0.017,0.208-0.235,0.601-0.594c0.552-0.492,1.085-0.965,1.619-1.441l0.056-0.05l0.063,0.045
						c0.45,0.319,0.902,0.64,1.375,0.975l-0.132,0.009l0.053-0.05c0.793-0.741,1.526-1.427,2.285-2.136l0.049-0.046l0.051,0.039
						c0.313,0.238,0.629,0.479,0.954,0.726C135.004,94.695,135.124,94.799,135.115,94.811z"/>
				</g>
			</g>
			<g>
				<g>
					<path style="fill:#263238;" d="M132.274,93.236c-0.039,0.016-0.008-0.358-0.395-0.646c-0.185-0.135-0.48-0.205-0.761-0.096
						c-0.279,0.1-0.516,0.397-0.513,0.742c-0.003,0.345,0.234,0.642,0.513,0.743c0.281,0.109,0.576,0.038,0.761-0.096
						C132.266,93.593,132.235,93.219,132.274,93.236c0.012-0.025,0.122,0.383-0.306,0.763c-0.205,0.175-0.562,0.284-0.916,0.16
						c-0.351-0.112-0.66-0.485-0.656-0.923c-0.004-0.438,0.305-0.81,0.656-0.923c0.354-0.124,0.71-0.016,0.916,0.16
						C132.396,92.853,132.286,93.261,132.274,93.236z"/>
				</g>
			</g>
		</g>
	</g>
	<g>
		<g>
			<g>
				<rect x="216.883" y="47.67" style="fill:#E8505B;" width="2.819" height="2.819"/>
			</g>
			<g>
				<rect x="216.883" y="89.271" style="fill:#E8505B;" width="2.819" height="2.819"/>
			</g>
			<g>
				<rect x="274.707" y="89.271" style="fill:#E8505B;" width="2.819" height="2.819"/>
			</g>
			<g>
				<rect x="216.883" y="130.187" style="fill:#E8505B;" width="2.819" height="2.819"/>
			</g>
			<g>
				<rect x="245.196" y="47.67" style="fill:#E8505B;" width="2.819" height="2.819"/>
			</g>
			<g>
				<rect x="245.196" y="130.873" style="fill:#E8505B;" width="2.819" height="2.819"/>
			</g>
			<g>
				<rect x="274.707" y="47.67" style="fill:#E8505B;" width="2.819" height="2.819"/>
			</g>
			<g>
				<rect x="274.707" y="130.873" style="fill:#E8505B;" width="2.819" height="2.819"/>
			</g>
		</g>
		<g>
			<g>
				<path style="fill:#E8505B;" d="M276.312,131.775c0,0-0.009-0.142-0.014-0.409c-0.003-0.281-0.008-0.671-0.014-1.179
					c-0.007-1.05-0.016-2.576-0.029-4.556c-0.015-3.986-0.036-9.785-0.064-17.116c-0.029-14.657-0.069-35.426-0.117-59.943
					l0.237,0.237c-17.537,0.007-37.158,0.015-57.817,0.023h-0.007l0.26-0.26c-0.019,31.239-0.036,60.099-0.05,83.204l-0.21-0.21
					c17.55,0.046,31.979,0.084,42.038,0.11c5.028,0.023,8.961,0.041,11.656,0.054c1.333,0.01,2.357,0.018,3.066,0.023
					C275.943,131.76,276.312,131.775,276.312,131.775s-0.339,0.015-1.02,0.023c-0.7,0.005-1.71,0.013-3.027,0.024
					c-2.684,0.012-6.601,0.031-11.609,0.054c-10.09,0.026-24.564,0.064-42.168,0.11l-0.21,0.001l0-0.211
					c-0.014-23.104-0.032-51.965-0.051-83.204l0-0.261h0.261h0.007c20.658,0.008,40.279,0.016,57.817,0.023l0.238,0l0,0.238
					c-0.048,24.58-0.089,45.403-0.117,60.098c-0.027,7.308-0.049,13.089-0.064,17.063c-0.012,1.96-0.022,3.47-0.029,4.509
					c-0.006,0.497-0.011,0.878-0.014,1.153C276.321,131.651,276.312,131.775,276.312,131.775z"/>
			</g>
		</g>
	</g>
	<g>
		<g>
			<rect x="220.753" y="52.388" style="fill:#E0E0E0;" width="53.179" height="76.449"/>
		</g>
		<g>
			<g>
				<path style="fill:#263238;" d="M253.562,75.659c0,0.144-2.057,0.26-4.593,0.26c-2.537,0-4.594-0.117-4.594-0.26
					c0-0.144,2.056-0.26,4.594-0.26C251.506,75.398,253.562,75.515,253.562,75.659z"/>
			</g>
		</g>
		<g>
			<g>
				<g>
					<path style="fill:#263238;" d="M239.341,76.799c0,0.144-2.888,0.26-6.449,0.26c-3.563,0-6.45-0.117-6.45-0.26
						s2.887-0.26,6.45-0.26C236.453,76.538,239.341,76.655,239.341,76.799z"/>
				</g>
			</g>
			<g>
				<g>
					<path style="fill:#263238;" d="M239.341,80.176c0,0.144-2.888,0.26-6.449,0.26c-3.563,0-6.45-0.117-6.45-0.26
						c0-0.144,2.887-0.26,6.45-0.26C236.453,79.916,239.341,80.032,239.341,80.176z"/>
				</g>
			</g>
			<g>
				<g>
					<path style="fill:#263238;" d="M239.341,83.553c0,0.144-2.888,0.261-6.449,0.261c-3.563,0-6.45-0.117-6.45-0.261
						c0-0.144,2.887-0.26,6.45-0.26C236.453,83.293,239.341,83.41,239.341,83.553z"/>
				</g>
			</g>
			<g>
				<g>
					<path style="fill:#263238;" d="M239.341,86.931c0,0.144-2.888,0.26-6.449,0.26c-3.563,0-6.45-0.117-6.45-0.26
						c0-0.144,2.887-0.26,6.45-0.26C236.453,86.67,239.341,86.787,239.341,86.931z"/>
				</g>
			</g>
			<g>
				<g>
					<path style="fill:#263238;" d="M239.341,90.308c0,0.144-2.888,0.26-6.449,0.26c-3.563,0-6.45-0.117-6.45-0.26
						s2.887-0.26,6.45-0.26C236.453,90.048,239.341,90.164,239.341,90.308z"/>
				</g>
			</g>
		</g>
		<g>
			<g>
				<g>
					<path style="fill:#263238;" d="M239.341,96.395c0,0.144-2.888,0.26-6.449,0.26c-3.563,0-6.45-0.117-6.45-0.26
						s2.887-0.26,6.45-0.26C236.453,96.134,239.341,96.251,239.341,96.395z"/>
				</g>
			</g>
			<g>
				<g>
					<path style="fill:#263238;" d="M239.341,99.772c0,0.144-2.888,0.26-6.449,0.26c-3.563,0-6.45-0.117-6.45-0.26
						c0-0.144,2.887-0.26,6.45-0.26C236.453,99.511,239.341,99.628,239.341,99.772z"/>
				</g>
			</g>
			<g>
				<g>
					<path style="fill:#263238;" d="M239.341,103.149c0,0.144-2.888,0.26-6.449,0.26c-3.563,0-6.45-0.117-6.45-0.26
						c0-0.144,2.887-0.26,6.45-0.26C236.453,102.889,239.341,103.006,239.341,103.149z"/>
				</g>
			</g>
			<g>
				<g>
					<path style="fill:#263238;" d="M233.612,106.527c0,0.144-1.605,0.26-3.585,0.26c-1.98,0-3.585-0.117-3.585-0.26
						c0-0.144,1.605-0.26,3.585-0.26C232.006,106.266,233.612,106.383,233.612,106.527z"/>
				</g>
			</g>
		</g>
		<g>
			<g>
				<path style="fill:#263238;" d="M265.099,81.141c0,0.144-4.64,0.26-10.361,0.26c-5.724,0-10.362-0.117-10.362-0.26
					c0-0.144,4.639-0.26,10.362-0.26C260.46,80.88,265.099,80.997,265.099,81.141z"/>
			</g>
		</g>
		<g>
			<g>
				<path style="fill:#263238;" d="M265.394,84.435c0,0.144-4.64,0.26-10.361,0.26c-5.724,0-10.362-0.117-10.362-0.26
					c0-0.144,4.639-0.26,10.362-0.26C260.755,84.175,265.394,84.291,265.394,84.435z"/>
			</g>
		</g>
		<g>
			<g>
				<path style="fill:#263238;" d="M253.562,91.961c0,0.144-2.057,0.26-4.593,0.26c-2.537,0-4.594-0.117-4.594-0.26
					s2.056-0.26,4.594-0.26C251.506,91.701,253.562,91.817,253.562,91.961z"/>
			</g>
		</g>
		<g>
			<g>
				<path style="fill:#263238;" d="M265.099,97.443c0,0.144-4.64,0.26-10.361,0.26c-5.724,0-10.362-0.117-10.362-0.26
					s4.639-0.26,10.362-0.26C260.46,97.183,265.099,97.299,265.099,97.443z"/>
			</g>
		</g>
		<g>
			<g>
				<path style="fill:#263238;" d="M265.394,100.738c0,0.144-4.64,0.26-10.361,0.26c-5.724,0-10.362-0.117-10.362-0.26
					c0-0.144,4.639-0.26,10.362-0.26C260.755,100.478,265.394,100.594,265.394,100.738z"/>
			</g>
		</g>
		<g>
			<g>
				<path style="fill:#263238;" d="M253.562,108.9c0,0.144-2.057,0.26-4.593,0.26c-2.537,0-4.594-0.117-4.594-0.26
					c0-0.144,2.056-0.26,4.594-0.26C251.506,108.639,253.562,108.756,253.562,108.9z"/>
			</g>
		</g>
		<g>
			<g>
				<path style="fill:#263238;" d="M265.099,114.382c0,0.144-4.64,0.26-10.361,0.26c-5.724,0-10.362-0.117-10.362-0.26
					c0-0.144,4.639-0.26,10.362-0.26C260.46,114.121,265.099,114.238,265.099,114.382z"/>
			</g>
		</g>
		<g>
			<g>
				<path style="fill:#263238;" d="M265.394,117.676c0,0.144-4.64,0.26-10.361,0.26c-5.724,0-10.362-0.117-10.362-0.26
					c0-0.144,4.639-0.26,10.362-0.26C260.755,117.416,265.394,117.533,265.394,117.676z"/>
			</g>
		</g>
		<g>
			<g>
				<path style="fill:#263238;" d="M239.728,71.787c-0.017-0.017-0.034-0.375-0.052-1.03c-0.015-0.715-0.035-1.649-0.059-2.803
					c-0.029-2.45-0.068-5.822-0.115-9.841l0.225,0.225c-3.992,0.01-8.675,0.022-13.672,0.035c-0.058,0.056,0.492-0.492,0.259-0.258
					v0.004v0.007v0.015v0.029v0.059v0.117v0.234l0,0.467l-0.001,0.927c-0.001,0.615-0.001,1.225-0.002,1.828
					c-0.002,1.206-0.005,2.386-0.007,3.535c-0.009,2.292-0.018,4.457-0.026,6.45l-0.225-0.225c4.019,0.047,7.391,0.086,9.841,0.115
					c1.154,0.024,2.089,0.044,2.803,0.059C239.352,71.753,239.711,71.77,239.728,71.787c0.017,0.017-0.309,0.033-0.937,0.052
					c-0.702,0.015-1.619,0.035-2.753,0.059c-2.485,0.029-5.907,0.068-9.985,0.115l-0.224,0.003l-0.001-0.228
					c-0.008-1.993-0.017-4.158-0.026-6.45c-0.002-1.149-0.005-2.329-0.007-3.535c-0.001-0.603-0.001-1.213-0.002-1.828l0-0.927
					l0-0.467v-0.234v-0.117v-0.059v-0.029v-0.015v-0.007v-0.004c-0.233,0.231,0.316-0.32,0.262-0.263
					c4.997,0.013,9.68,0.025,13.672,0.035l0.228,0l-0.003,0.225c-0.047,4.077-0.086,7.499-0.115,9.984
					c-0.024,1.133-0.044,2.051-0.059,2.753C239.761,71.478,239.745,71.804,239.728,71.787z"/>
			</g>
		</g>
		<g>
			<g>
				<path style="fill:#263238;" d="M267.958,63.923c0,0.144-4.907,0.26-10.958,0.26c-6.053,0-10.959-0.117-10.959-0.26
					c0-0.144,4.906-0.26,10.959-0.26C263.051,63.663,267.958,63.779,267.958,63.923z"/>
			</g>
		</g>
		<g>
			<g>
				<path style="fill:#263238;" d="M257.238,67.076c0,0.144-2.453,0.26-5.479,0.26c-3.027,0-5.48-0.117-5.48-0.26
					s2.453-0.26,5.48-0.26C254.784,66.816,257.238,66.932,257.238,67.076z"/>
			</g>
		</g>
		<g>
			<g>
				<path style="fill:#263238;" d="M249.447,61.13c0.015,0.055-0.331,0.298-1.036,0.442c-0.346,0.063-0.84,0.05-1.28-0.23
					c-0.431-0.267-0.796-0.76-0.861-1.364c-0.062-0.601,0.176-1.156,0.521-1.521c0.349-0.376,0.801-0.541,1.163-0.578
					c0.751-0.066,1.134,0.255,1.098,0.3c-0.026,0.078-0.434-0.082-1.035,0.063c-0.294,0.075-0.624,0.237-0.868,0.534
					c-0.245,0.292-0.408,0.719-0.362,1.147c0.044,0.424,0.3,0.803,0.608,1.019c0.307,0.223,0.665,0.274,0.978,0.264
					C249.004,61.169,249.426,61.048,249.447,61.13z"/>
			</g>
		</g>
		<g>
			<g>
				<path style="fill:#263238;" d="M253.193,57.723c0.127,0.067-0.493,1.592-1.387,3.404l-0.006,0.012l-0.221,0.449l-0.244-0.416
					c-1.026-1.75-1.756-3.225-1.632-3.297c0.124-0.073,1.055,1.284,2.081,3.034l-0.465,0.032l0.006-0.012
					C252.229,59.09,253.066,57.656,253.193,57.723z"/>
			</g>
		</g>
		<g>
			<g>
				<path style="fill:#263238;" d="M239.29,71.787c-0.042,0.026-0.404-0.709-1.384-1.545c-0.936-0.866-2.593-1.686-4.546-1.764
					c-1.961-0.092-3.602,0.85-4.524,1.704c-0.947,0.866-1.299,1.612-1.351,1.578c-0.014-0.007,0.052-0.201,0.238-0.517
					c0.186-0.314,0.488-0.76,0.961-1.222c0.907-0.922,2.622-1.952,4.687-1.855c2.034,0.076,3.76,0.979,4.684,1.912
					c0.48,0.451,0.806,0.878,0.998,1.192C239.242,71.584,239.306,71.78,239.29,71.787z"/>
			</g>
		</g>
		<g>
			<g>
				<g>
					<path style="fill:#263238;" d="M231.735,60.598c0,0,0.243-0.223,0.81-0.324c0.551-0.097,1.45-0.02,2.281,0.611
						c0.83,0.625,1.414,1.834,1.419,3.188c0.004,0.673-0.101,1.396-0.442,2.069c-0.326,0.679-0.992,1.234-1.767,1.428
						c-0.768,0.215-1.589,0.13-2.269-0.181c-0.682-0.312-1.23-0.825-1.581-1.413c-0.357-0.584-0.514-1.251-0.491-1.852
						c0.008-0.594,0.079-1.151,0.233-1.639c0.294-0.993,0.956-1.607,1.46-1.852c0.511-0.253,0.83-0.266,0.83-0.266
						c0.01,0.031-0.298,0.097-0.77,0.372c-0.467,0.271-1.055,0.862-1.308,1.809c-0.212,0.919-0.393,2.195,0.292,3.278
						c0.637,1.079,2.096,1.856,3.522,1.442c0.704-0.181,1.275-0.655,1.578-1.268c0.313-0.607,0.423-1.29,0.426-1.926
						c0.01-1.281-0.517-2.417-1.268-3.016c-0.756-0.609-1.599-0.721-2.129-0.663C232.017,60.453,231.748,60.628,231.735,60.598z"/>
				</g>
			</g>
			<g>
				<g>
					<path style="fill:#263238;" d="M234.546,63.128c0.086,0.002,0.155,0.085,0.152,0.185c-0.002,0.101-0.074,0.181-0.16,0.179
						c-0.086-0.002-0.154-0.085-0.152-0.185C234.388,63.206,234.46,63.126,234.546,63.128z"/>
				</g>
			</g>
			<g>
				<g>
					<path style="fill:#263238;" d="M231.501,63.559c0.086,0.002,0.154,0.085,0.152,0.185c-0.002,0.101-0.074,0.181-0.16,0.179
						c-0.086-0.002-0.155-0.085-0.152-0.185C231.343,63.637,231.414,63.557,231.501,63.559z"/>
				</g>
			</g>
			<g>
				<g>
					<path style="fill:#263238;" d="M229.876,62.693c0.002-0.045,0.314-0.06,0.811-0.071c0.495-0.016,1.181-0.022,1.893-0.211
						c0.719-0.187,1.305-0.52,1.574-0.91c0.276-0.383,0.332-0.701,0.384-0.687c0.03,0.001,0.06,0.338-0.2,0.809
						c-0.257,0.482-0.924,0.899-1.678,1.09c-0.768,0.203-1.482,0.17-1.981,0.13C230.178,62.797,229.874,62.734,229.876,62.693z"/>
				</g>
			</g>
			<g>
				<g>
					<path style="fill:#263238;" d="M229.885,65.138c0.002,0.04-0.107,0.095-0.301,0.071c-0.179-0.014-0.499-0.177-0.561-0.525
						c-0.031-0.165,0.009-0.344,0.12-0.463c0.11-0.118,0.247-0.155,0.355-0.153c0.233,0.009,0.301,0.169,0.265,0.187
						c-0.032,0.031-0.123-0.012-0.241,0.032c-0.126,0.042-0.227,0.156-0.192,0.34C229.404,65.01,229.906,65.054,229.885,65.138z"/>
				</g>
			</g>
			<g>
				<g>
					<path style="fill:#263238;" d="M236.232,64.828c-0.013-0.065,0.277-0.248,0.218-0.534c-0.073-0.283-0.414-0.32-0.43-0.384
						c-0.015-0.036,0.07-0.118,0.243-0.108c0.163,0.007,0.417,0.132,0.491,0.422c0.061,0.293-0.113,0.517-0.256,0.595
						C236.347,64.904,236.235,64.867,236.232,64.828z"/>
				</g>
			</g>
			<g>
				<g>
					<path style="fill:#263238;" d="M234.31,65.223c0.035,0.018,0.005,0.173-0.156,0.362c-0.156,0.186-0.464,0.391-0.855,0.419
						c-0.392,0.026-0.724-0.136-0.904-0.299c-0.185-0.165-0.236-0.314-0.204-0.337c0.059-0.06,0.463,0.366,1.087,0.324
						C233.9,65.648,234.243,65.171,234.31,65.223z"/>
				</g>
			</g>
			<g>
				<g>
					<path style="fill:#263238;" d="M233.292,65.007c-0.029-0.061,0.325-0.21,0.426-0.624l0.156,0.186
						c-0.182,0.028-0.384-0.044-0.527-0.17c-0.344-0.297-0.336-0.732-0.298-0.956c0.042-0.243,0.106-0.377,0.147-0.372
						c0.045,0.005,0.058,0.157,0.074,0.382c0.019,0.222,0.057,0.524,0.281,0.71c0.094,0.081,0.199,0.12,0.294,0.116l0.23-0.011
						L234,64.464C233.781,65.043,233.278,65.073,233.292,65.007z"/>
				</g>
			</g>
		</g>
		<g>
			<g>
				<path style="fill:#263238;" d="M232.548,68.36c-0.086,0.006-0.168-0.182-0.184-0.42c-0.015-0.238,0.042-0.434,0.128-0.44
					c0.086-0.006,0.168,0.182,0.184,0.42C232.692,68.157,232.634,68.354,232.548,68.36z"/>
			</g>
		</g>
		<g>
			<g>
				<path style="fill:#263238;" d="M234.093,68.238c-0.086,0.006-0.168-0.182-0.184-0.42c-0.015-0.237,0.042-0.434,0.128-0.44
					c0.086-0.006,0.168,0.182,0.184,0.42C234.236,68.036,234.179,68.233,234.093,68.238z"/>
			</g>
		</g>
	</g>
	<g>
		<g>
			<rect x="289.671" y="76.664" style="fill:#EBEBEB;" width="34.06" height="48.964"/>
		</g>
		<g>
			<g>
				<path style="fill:#263238;" d="M310.603,91.669c0,0.086-1.317,0.156-2.942,0.156c-1.625,0-2.942-0.07-2.942-0.156
					c0-0.086,1.317-0.156,2.942-0.156C309.286,91.513,310.603,91.583,310.603,91.669z"/>
			</g>
		</g>
		<g>
			<g>
				<g>
					<path style="fill:#263238;" d="M301.274,92.904c0,0.086-1.85,0.156-4.131,0.156c-2.282,0-4.131-0.07-4.131-0.156
						c0-0.086,1.849-0.156,4.131-0.156C299.424,92.748,301.274,92.818,301.274,92.904z"/>
				</g>
			</g>
			<g>
				<g>
					<path style="fill:#263238;" d="M301.274,95.067c0,0.086-1.85,0.156-4.131,0.156c-2.282,0-4.131-0.07-4.131-0.156
						c0-0.086,1.849-0.156,4.131-0.156C299.424,94.911,301.274,94.981,301.274,95.067z"/>
				</g>
			</g>
			<g>
				<g>
					<path style="fill:#263238;" d="M301.274,97.231c0,0.086-1.85,0.156-4.131,0.156c-2.282,0-4.131-0.07-4.131-0.156
						c0-0.086,1.849-0.156,4.131-0.156C299.424,97.074,301.274,97.144,301.274,97.231z"/>
				</g>
			</g>
			<g>
				<g>
					<path style="fill:#263238;" d="M297.605,99.394c0,0.086-1.028,0.156-2.296,0.156c-1.268,0-2.296-0.07-2.296-0.156
						c0-0.086,1.028-0.156,2.296-0.156C296.577,99.238,297.605,99.307,297.605,99.394z"/>
				</g>
			</g>
		</g>
		<g>
			<g>
				<path style="fill:#263238;" d="M317.993,95.18c0,0.086-2.971,0.156-6.636,0.156c-3.666,0-6.637-0.07-6.637-0.156
					c0-0.086,2.971-0.156,6.637-0.156C315.021,95.024,317.993,95.094,317.993,95.18z"/>
			</g>
		</g>
		<g>
			<g>
				<path style="fill:#263238;" d="M318.182,97.29c0,0.086-2.972,0.156-6.636,0.156c-3.666,0-6.637-0.07-6.637-0.156
					c0-0.086,2.971-0.156,6.637-0.156C315.21,97.134,318.182,97.204,318.182,97.29z"/>
			</g>
		</g>
		<g>
			<g>
				<path style="fill:#263238;" d="M310.603,102.11c0,0.086-1.317,0.156-2.942,0.156c-1.625,0-2.942-0.07-2.942-0.156
					c0-0.086,1.317-0.156,2.942-0.156C309.286,101.954,310.603,102.024,310.603,102.11z"/>
			</g>
		</g>
		<g>
			<g>
				<path style="fill:#263238;" d="M317.993,105.621c0,0.086-2.971,0.156-6.636,0.156c-3.666,0-6.637-0.07-6.637-0.156
					c0-0.086,2.971-0.156,6.637-0.156C315.021,105.465,317.993,105.535,317.993,105.621z"/>
			</g>
		</g>
		<g>
			<g>
				<path style="fill:#263238;" d="M318.182,107.732c0,0.086-2.972,0.156-6.636,0.156c-3.666,0-6.637-0.07-6.637-0.156
					c0-0.086,2.971-0.156,6.637-0.156C315.21,107.575,318.182,107.645,318.182,107.732z"/>
			</g>
		</g>
		<g>
			<g>
				<path style="fill:#263238;" d="M310.603,112.959c0,0.086-1.317,0.156-2.942,0.156c-1.625,0-2.942-0.07-2.942-0.156
					c0-0.086,1.317-0.156,2.942-0.156C309.286,112.803,310.603,112.873,310.603,112.959z"/>
			</g>
		</g>
		<g>
			<g>
				<path style="fill:#263238;" d="M317.993,116.47c0,0.086-2.971,0.156-6.636,0.156c-3.666,0-6.637-0.07-6.637-0.156
					c0-0.086,2.971-0.156,6.637-0.156C315.021,116.314,317.993,116.384,317.993,116.47z"/>
			</g>
		</g>
		<g>
			<g>
				<path style="fill:#263238;" d="M318.182,118.58c0,0.086-2.972,0.156-6.636,0.156c-3.666,0-6.637-0.07-6.637-0.156
					c0-0.086,2.971-0.156,6.637-0.156C315.21,118.424,318.182,118.494,318.182,118.58z"/>
			</g>
		</g>
		<g>
			<g>
				<path style="fill:#263238;" d="M319.824,86.178c0,0.086-3.143,0.156-7.019,0.156c-3.877,0-7.019-0.07-7.019-0.156
					c0-0.086,3.142-0.156,7.019-0.156C316.681,86.022,319.824,86.092,319.824,86.178z"/>
			</g>
		</g>
		<g>
			<g>
				<path style="fill:#263238;" d="M312.957,88.198c0,0.086-1.571,0.156-3.509,0.156c-1.939,0-3.51-0.07-3.51-0.156
					c0-0.086,1.571-0.156,3.51-0.156C311.386,88.042,312.957,88.112,312.957,88.198z"/>
			</g>
		</g>
		<g>
			<g>
				<path style="fill:#263238;" d="M307.968,84.39c0.009,0.032-0.214,0.185-0.664,0.276c-0.221,0.039-0.534,0.03-0.814-0.148
					c-0.274-0.17-0.505-0.484-0.546-0.867c-0.081-0.794,0.608-1.327,1.07-1.336c0.478-0.044,0.724,0.158,0.702,0.185
					c-0.016,0.048-0.276-0.059-0.664,0.033c-0.379,0.063-0.855,0.5-0.797,1.085c0.028,0.275,0.195,0.52,0.394,0.66
					c0.199,0.144,0.432,0.176,0.633,0.168C307.686,84.42,307.955,84.34,307.968,84.39z"/>
			</g>
		</g>
		<g>
			<g>
				<path style="fill:#263238;" d="M310.367,82.207c0.076,0.04-0.326,1.015-0.898,2.176l-0.004,0.008l-0.133,0.269l-0.146-0.25
					c-0.657-1.121-1.129-2.063-1.054-2.106c0.074-0.044,0.666,0.828,1.324,1.948l-0.279,0.019l0.004-0.008
					C309.759,83.088,310.291,82.167,310.367,82.207z"/>
			</g>
		</g>
		<g>
			<g>
				<path style="fill:none;stroke:#4E585D;stroke-width:0.02;stroke-miterlimit:10;" d="M302.969,85.484"/>
			</g>
		</g>
		<g>
			<g>
				<g>
					<path style="fill:#263238;" d="M301.984,89.189c-0.01-0.01-0.02-0.239-0.031-0.658c-0.01-0.496-0.021-1.089-0.035-1.795
						c-0.018-1.63-0.041-3.775-0.069-6.306l0.135,0.135c-2.573,0.006-5.565,0.013-8.757,0.021c-0.035,0.034,0.295-0.295,0.155-0.155
						v0.002v0.005v0.009v0.019l0,0.037v0.075v0.15v0.299l0,0.594c0,0.394-0.001,0.784-0.001,1.171
						c-0.001,0.772-0.003,1.528-0.004,2.264c-0.005,1.464-0.011,2.849-0.016,4.131l-0.135-0.135
						c2.531,0.028,4.676,0.051,6.306,0.069c0.705,0.014,1.299,0.026,1.794,0.035C301.745,89.169,301.973,89.179,301.984,89.189
						c0.01,0.01-0.199,0.02-0.602,0.031c-0.487,0.01-1.07,0.021-1.764,0.035c-1.652,0.018-3.827,0.041-6.392,0.069l-0.135,0.001
						l0-0.137c-0.005-1.282-0.01-2.667-0.016-4.131c-0.001-0.736-0.003-1.492-0.004-2.264c0-0.386-0.001-0.777-0.001-1.171l0-0.594
						l0-0.299v-0.15v-0.075v-0.037v-0.019V80.44v-0.005v-0.002c-0.14,0.139,0.19-0.192,0.157-0.158
						c3.192,0.008,6.184,0.015,8.757,0.021l0.137,0l-0.001,0.135c-0.028,2.565-0.051,4.739-0.069,6.392
						c-0.014,0.694-0.026,1.277-0.035,1.764C302.004,88.99,301.994,89.199,301.984,89.189z"/>
				</g>
			</g>
			<g>
				<g>
					<path style="fill:#263238;" d="M296.771,82.399c0,0,0.155-0.144,0.518-0.209c0.353-0.063,0.93-0.014,1.463,0.391
						c0.533,0.401,0.907,1.176,0.91,2.044c0.003,0.432-0.065,0.895-0.283,1.327c-0.209,0.436-0.637,0.792-1.134,0.917
						c-1.01,0.293-2.04-0.266-2.471-1.023c-0.229-0.375-0.33-0.803-0.314-1.188c0.006-0.381,0.051-0.738,0.15-1.05
						c0.189-0.636,0.614-1.03,0.937-1.187c0.328-0.162,0.532-0.169,0.532-0.169c0.007,0.02-0.191,0.063-0.492,0.24
						c-0.299,0.174-0.674,0.552-0.836,1.158c-0.135,0.588-0.25,1.405,0.187,2.097c0.408,0.69,1.34,1.186,2.252,0.922
						c0.952-0.223,1.299-1.25,1.281-2.042c0.007-0.82-0.33-1.546-0.81-1.93c-0.483-0.39-1.023-0.462-1.361-0.426
						C296.952,82.308,296.779,82.419,296.771,82.399z"/>
				</g>
			</g>
			<g>
				<g>
					<path style="fill:#263238;" d="M299.536,85.143c-0.011-0.039,0.307-0.151,0.291-0.454c-0.044-0.301-0.378-0.348-0.375-0.388
						c-0.007-0.024,0.076-0.077,0.22-0.044c0.136,0.028,0.332,0.165,0.362,0.412c0.019,0.248-0.146,0.421-0.274,0.475
						C299.626,85.203,299.534,85.168,299.536,85.143z"/>
				</g>
			</g>
			<g>
				<g>
					<path style="fill:#263238;" d="M295.55,84.647c0.019,0.035-0.269,0.212-0.189,0.506c0.106,0.285,0.443,0.261,0.448,0.301
						c0.012,0.022-0.058,0.091-0.206,0.09c-0.139,0.001-0.36-0.092-0.441-0.327c-0.071-0.238,0.055-0.442,0.168-0.522
						C295.449,84.607,295.546,84.622,295.55,84.647z"/>
				</g>
			</g>
			<g>
				<g>
					<path style="fill:#263238;" d="M298.565,85.256c0.066,0-0.14,0.55-0.781,0.643c-0.644,0.068-0.979-0.414-0.915-0.43
						c0.034-0.045,0.379,0.286,0.889,0.224C298.269,85.627,298.521,85.221,298.565,85.256z"/>
				</g>
			</g>
			<g>
				<g>
					<path style="fill:#263238;" d="M298.965,83.181c0.009,0.021-0.146,0.145-0.456,0.264c-0.155,0.053-0.364,0.105-0.598,0.044
						c-0.22-0.055-0.486-0.226-0.537-0.536l0.178,0.057l-0.025,0.024c-0.375,0.374-0.85,0.526-1.184,0.549
						c-0.339,0.026-0.539-0.049-0.534-0.072c-0.017-0.059,0.873,0.065,1.57-0.624l0.022-0.022l0.149-0.144l0.029,0.202
						c0.027,0.19,0.208,0.33,0.384,0.382c0.176,0.057,0.358,0.032,0.505-0.001C298.765,83.23,298.952,83.151,298.965,83.181z"/>
				</g>
			</g>
			<g>
				<g>
					<path style="fill:#263238;" d="M300.84,89.189c-0.035,0.024-0.233-0.372-0.759-0.805c-0.514-0.441-1.421-0.817-2.464-0.778
						c-1.039,0.021-1.94,0.414-2.449,0.858c-0.52,0.44-0.697,0.848-0.732,0.826c-0.011-0.006,0.024-0.108,0.116-0.283
						c0.095-0.172,0.26-0.41,0.519-0.654c0.508-0.496,1.454-0.935,2.541-0.956c1.089-0.044,2.055,0.383,2.565,0.874
						c0.264,0.238,0.432,0.473,0.533,0.641C300.812,89.081,300.85,89.183,300.84,89.189z"/>
				</g>
			</g>
			<g>
				<g>
					<path style="fill:#263238;" d="M297.661,85.143c-0.018-0.036,0.086-0.113,0.171-0.26l0.004,0.111
						c-0.072-0.072-0.148-0.168-0.208-0.282c-0.186-0.346-0.146-0.675-0.09-0.671c0.059-0.003,0.113,0.277,0.274,0.573
						c0.053,0.1,0.111,0.189,0.161,0.264l0.044,0.066l-0.04,0.045C297.827,85.156,297.673,85.175,297.661,85.143z"/>
				</g>
			</g>
			<g>
				<g>
					<path style="fill:#263238;" d="M298.845,84.366c-0.046,0.031-0.161-0.035-0.283-0.015c-0.123,0.013-0.216,0.108-0.269,0.09
						c-0.061-0.004-0.024-0.25,0.241-0.297C298.802,84.119,298.903,84.346,298.845,84.366z"/>
				</g>
			</g>
			<g>
				<g>
					<path style="fill:#263238;" d="M296.778,84.566c-0.037,0.046-0.15,0.018-0.28,0.021c-0.129-0.003-0.242,0.026-0.28-0.02
						c-0.04-0.041,0.073-0.188,0.279-0.188C296.704,84.379,296.818,84.525,296.778,84.566z"/>
				</g>
			</g>
			<g>
				<g>
					<path style="fill:#263238;" d="M296.219,87.762c0.004,0.014-0.111,0.067-0.312,0.183c-0.102,0.055-0.228,0.132-0.404,0.17
						c-0.178,0.043-0.399-0.014-0.58-0.14c-0.183-0.125-0.355-0.323-0.417-0.592c-0.033-0.132-0.02-0.287,0.028-0.421
						c0.049-0.136,0.075-0.21,0.013-0.308c-0.164-0.19-0.302-0.588-0.136-0.898c0.157-0.312,0.457-0.469,0.493-0.741
						c0.047-0.271-0.053-0.594-0.032-0.907c0.009-0.311,0.074-0.61,0.184-0.875c0.215-0.536,0.635-0.911,1.039-1.066
						c0.841-0.324,1.372,0.055,1.337,0.056c0.004,0.044-0.521-0.257-1.278,0.079c-0.365,0.161-0.73,0.507-0.919,1.003
						c-0.097,0.245-0.153,0.521-0.158,0.808c-0.022,0.286,0.087,0.578,0.032,0.941c-0.075,0.387-0.416,0.56-0.513,0.79
						c-0.112,0.247-0.055,0.484,0.121,0.718c0.1,0.146,0.04,0.364-0.009,0.462c-0.041,0.11-0.053,0.217-0.031,0.325
						c0.041,0.214,0.18,0.393,0.333,0.506c0.32,0.267,0.658,0.11,0.863,0.017C296.085,87.778,296.215,87.749,296.219,87.762z"/>
				</g>
			</g>
			<g>
				<g>
					<path style="fill:#263238;" d="M299.568,87.979c0.004-0.018,0.128,0.017,0.345,0.038c0.219,0.049,0.518-0.123,0.62-0.499
						c0.058-0.188,0.028-0.365-0.038-0.613c-0.033-0.127,0.007-0.3,0.077-0.409c0.066-0.115,0.115-0.212,0.143-0.333
						c0.057-0.237,0.025-0.503-0.113-0.732c-0.133-0.235-0.356-0.442-0.525-0.723c-0.323-0.58-0.31-1.197-0.521-1.659
						c-0.19-0.476-0.628-0.711-1.002-0.8c-0.767-0.15-1.283-0.037-1.281-0.091c0,0,0.487-0.172,1.313-0.053
						c0.397,0.07,0.918,0.328,1.144,0.865c0.236,0.51,0.237,1.127,0.525,1.631c0.146,0.248,0.37,0.458,0.523,0.728
						c0.16,0.271,0.197,0.601,0.122,0.879c-0.068,0.301-0.298,0.472-0.235,0.669c0.053,0.207,0.09,0.484,0.008,0.683
						c-0.069,0.207-0.194,0.366-0.34,0.466c-0.155,0.1-0.319,0.091-0.431,0.07C299.675,88.05,299.565,87.989,299.568,87.979z"/>
				</g>
			</g>
			<g>
				<g>
					<path style="fill:#263238;" d="M296.965,87.641c-0.057,0.009-0.125-0.201-0.151-0.467c-0.027-0.267-0.002-0.489,0.055-0.496
						s0.125,0.202,0.151,0.468C297.047,87.41,297.022,87.632,296.965,87.641z"/>
				</g>
			</g>
			<g>
				<g>
					<path style="fill:#263238;" d="M298.618,86.616c0.057,0.009,0.071,0.225,0.031,0.484c-0.04,0.258-0.118,0.461-0.175,0.452
						c-0.057-0.009-0.071-0.225-0.031-0.484C298.483,86.81,298.561,86.607,298.618,86.616z"/>
				</g>
			</g>
		</g>
	</g>
	<g>
		<g>
			<rect x="166.06" y="76.664" style="fill:#EBEBEB;" width="34.06" height="48.964"/>
		</g>
		<g>
			<g>
				<path style="fill:#263238;" d="M186.992,91.669c0,0.086-1.317,0.156-2.942,0.156c-1.625,0-2.942-0.07-2.942-0.156
					c0-0.086,1.317-0.156,2.942-0.156C185.675,91.513,186.992,91.583,186.992,91.669z"/>
			</g>
		</g>
		<g>
			<g>
				<g>
					<path style="fill:#263238;" d="M177.663,92.904c0,0.086-1.85,0.156-4.131,0.156c-2.282,0-4.131-0.07-4.131-0.156
						c0-0.086,1.849-0.156,4.131-0.156C175.813,92.748,177.663,92.818,177.663,92.904z"/>
				</g>
			</g>
			<g>
				<g>
					<path style="fill:#263238;" d="M177.663,95.067c0,0.086-1.85,0.156-4.131,0.156c-2.282,0-4.131-0.07-4.131-0.156
						c0-0.086,1.849-0.156,4.131-0.156C175.813,94.911,177.663,94.981,177.663,95.067z"/>
				</g>
			</g>
			<g>
				<g>
					<path style="fill:#263238;" d="M177.663,97.231c0,0.086-1.85,0.156-4.131,0.156c-2.282,0-4.131-0.07-4.131-0.156
						c0-0.086,1.849-0.156,4.131-0.156C175.813,97.074,177.663,97.144,177.663,97.231z"/>
				</g>
			</g>
			<g>
				<g>
					<path style="fill:#263238;" d="M173.994,99.394c0,0.086-1.028,0.156-2.296,0.156c-1.268,0-2.296-0.07-2.296-0.156
						c0-0.086,1.028-0.156,2.296-0.156C172.965,99.238,173.994,99.307,173.994,99.394z"/>
				</g>
			</g>
		</g>
		<g>
			<g>
				<path style="fill:#263238;" d="M194.382,95.18c0,0.086-2.971,0.156-6.636,0.156c-3.666,0-6.637-0.07-6.637-0.156
					c0-0.086,2.971-0.156,6.637-0.156C191.41,95.024,194.382,95.094,194.382,95.18z"/>
			</g>
		</g>
		<g>
			<g>
				<path style="fill:#263238;" d="M194.571,97.29c0,0.086-2.972,0.156-6.636,0.156c-3.666,0-6.637-0.07-6.637-0.156
					c0-0.086,2.971-0.156,6.637-0.156C191.599,97.134,194.571,97.204,194.571,97.29z"/>
			</g>
		</g>
		<g>
			<g>
				<path style="fill:#263238;" d="M186.992,102.11c0,0.086-1.317,0.156-2.942,0.156c-1.625,0-2.942-0.07-2.942-0.156
					c0-0.086,1.317-0.156,2.942-0.156C185.675,101.954,186.992,102.024,186.992,102.11z"/>
			</g>
		</g>
		<g>
			<g>
				<path style="fill:#263238;" d="M194.382,105.621c0,0.086-2.971,0.156-6.636,0.156c-3.666,0-6.637-0.07-6.637-0.156
					c0-0.086,2.971-0.156,6.637-0.156C191.41,105.465,194.382,105.535,194.382,105.621z"/>
			</g>
		</g>
		<g>
			<g>
				<path style="fill:#263238;" d="M194.571,107.732c0,0.086-2.972,0.156-6.636,0.156c-3.666,0-6.637-0.07-6.637-0.156
					c0-0.086,2.971-0.156,6.637-0.156C191.599,107.575,194.571,107.645,194.571,107.732z"/>
			</g>
		</g>
		<g>
			<g>
				<path style="fill:#263238;" d="M186.992,112.959c0,0.086-1.317,0.156-2.942,0.156c-1.625,0-2.942-0.07-2.942-0.156
					c0-0.086,1.317-0.156,2.942-0.156C185.675,112.803,186.992,112.873,186.992,112.959z"/>
			</g>
		</g>
		<g>
			<g>
				<path style="fill:#263238;" d="M194.382,116.47c0,0.086-2.971,0.156-6.636,0.156c-3.666,0-6.637-0.07-6.637-0.156
					c0-0.086,2.971-0.156,6.637-0.156C191.41,116.314,194.382,116.384,194.382,116.47z"/>
			</g>
		</g>
		<g>
			<g>
				<path style="fill:#263238;" d="M194.571,118.58c0,0.086-2.972,0.156-6.636,0.156c-3.666,0-6.637-0.07-6.637-0.156
					c0-0.086,2.971-0.156,6.637-0.156C191.599,118.424,194.571,118.494,194.571,118.58z"/>
			</g>
		</g>
		<g>
			<g>
				<path style="fill:#263238;" d="M196.212,86.178c0,0.086-3.143,0.156-7.018,0.156c-3.877,0-7.019-0.07-7.019-0.156
					c0-0.086,3.142-0.156,7.019-0.156C193.07,86.022,196.212,86.092,196.212,86.178z"/>
			</g>
		</g>
		<g>
			<g>
				<path style="fill:#263238;" d="M189.346,88.198c0,0.086-1.571,0.156-3.509,0.156c-1.939,0-3.51-0.07-3.51-0.156
					c0-0.086,1.571-0.156,3.51-0.156C187.775,88.042,189.346,88.112,189.346,88.198z"/>
			</g>
		</g>
		<g>
			<g>
				<path style="fill:none;stroke:#4E585D;stroke-width:0.02;stroke-miterlimit:10;" d="M179.358,85.484"/>
			</g>
		</g>
		<g>
			<g>
				<g>
					<path style="fill:#263238;" d="M178.232,89.138c-0.01-0.01-0.02-0.239-0.031-0.658c-0.01-0.496-0.022-1.089-0.035-1.795
						c-0.018-1.63-0.041-3.775-0.069-6.306l0.135,0.135c-2.573,0.006-5.565,0.013-8.757,0.021c-0.035,0.034,0.295-0.295,0.155-0.155
						v0.002v0.005v0.009v0.019v0.038v0.075v0.15l0,0.299l0,0.594c0,0.394-0.001,0.784-0.001,1.171
						c-0.001,0.772-0.003,1.527-0.004,2.264c-0.006,1.464-0.011,2.849-0.016,4.131l-0.135-0.135
						c2.531,0.028,4.676,0.051,6.306,0.069c0.705,0.014,1.299,0.026,1.794,0.035C177.993,89.118,178.222,89.128,178.232,89.138
						c0.01,0.01-0.199,0.02-0.602,0.031c-0.487,0.01-1.07,0.021-1.764,0.035c-1.652,0.018-3.826,0.041-6.392,0.069l-0.135,0.001
						l-0.001-0.137c-0.005-1.282-0.01-2.667-0.016-4.131c-0.001-0.736-0.003-1.492-0.004-2.264c0-0.386-0.001-0.777-0.001-1.171
						l0-0.594l0-0.299v-0.15v-0.075v-0.038v-0.019v-0.009v-0.005v-0.002c-0.14,0.139,0.19-0.192,0.157-0.158
						c3.192,0.008,6.184,0.015,8.757,0.021l0.137,0l-0.001,0.135c-0.028,2.565-0.051,4.739-0.069,6.392
						c-0.014,0.694-0.026,1.277-0.035,1.764C178.252,88.939,178.242,89.149,178.232,89.138z"/>
				</g>
			</g>
			<g>
				<g>
					<path style="fill:#263238;" d="M173.019,82.349c0,0,0.155-0.144,0.518-0.209c0.353-0.063,0.93-0.014,1.463,0.391
						c0.533,0.401,0.907,1.176,0.91,2.044c0.003,0.432-0.065,0.895-0.283,1.327c-0.209,0.436-0.637,0.792-1.135,0.917
						c-1.01,0.293-2.04-0.266-2.471-1.022c-0.229-0.375-0.33-0.803-0.314-1.188c0.006-0.381,0.051-0.738,0.15-1.051
						c0.189-0.636,0.614-1.03,0.937-1.187c0.327-0.162,0.532-0.169,0.532-0.169c0.006,0.02-0.191,0.063-0.493,0.24
						c-0.299,0.174-0.674,0.552-0.836,1.158c-0.135,0.588-0.251,1.405,0.187,2.097c0.408,0.69,1.34,1.186,2.252,0.922
						c0.952-0.224,1.299-1.251,1.281-2.042c0.007-0.82-0.33-1.546-0.81-1.93c-0.483-0.39-1.023-0.462-1.361-0.426
						C173.2,82.257,173.027,82.369,173.019,82.349z"/>
				</g>
			</g>
			<g>
				<g>
					<path style="fill:#263238;" d="M175.784,85.092c-0.011-0.039,0.308-0.151,0.291-0.454c-0.044-0.301-0.378-0.348-0.375-0.388
						c-0.007-0.024,0.076-0.077,0.22-0.045c0.136,0.028,0.332,0.165,0.362,0.412c0.019,0.248-0.146,0.421-0.274,0.475
						C175.874,85.152,175.782,85.117,175.784,85.092z"/>
				</g>
			</g>
			<g>
				<g>
					<path style="fill:#263238;" d="M171.798,84.596c0.019,0.035-0.269,0.212-0.189,0.506c0.106,0.285,0.443,0.261,0.448,0.301
						c0.012,0.022-0.059,0.091-0.206,0.09c-0.139,0.001-0.36-0.092-0.441-0.327c-0.071-0.238,0.055-0.442,0.168-0.522
						C171.697,84.556,171.795,84.571,171.798,84.596z"/>
				</g>
			</g>
			<g>
				<g>
					<path style="fill:#263238;" d="M174.813,85.205c0.066,0-0.14,0.55-0.781,0.643c-0.644,0.068-0.979-0.414-0.915-0.43
						c0.035-0.045,0.379,0.286,0.889,0.224C174.517,85.576,174.769,85.17,174.813,85.205z"/>
				</g>
			</g>
			<g>
				<g>
					<path style="fill:#263238;" d="M175.213,83.131c0.009,0.021-0.146,0.145-0.456,0.264c-0.155,0.053-0.364,0.105-0.598,0.044
						c-0.22-0.055-0.486-0.226-0.538-0.536l0.178,0.057l-0.025,0.024c-0.375,0.374-0.85,0.526-1.183,0.549
						c-0.339,0.026-0.539-0.049-0.534-0.072c-0.017-0.059,0.873,0.065,1.57-0.624l0.022-0.022l0.149-0.144l0.029,0.202
						c0.027,0.19,0.208,0.33,0.383,0.382c0.176,0.057,0.358,0.031,0.505-0.001C175.014,83.18,175.201,83.1,175.213,83.131z"/>
				</g>
			</g>
			<g>
				<g>
					<path style="fill:#263238;" d="M177.088,89.138c-0.035,0.025-0.233-0.371-0.759-0.805c-0.514-0.441-1.421-0.817-2.464-0.778
						c-1.039,0.021-1.94,0.414-2.449,0.859c-0.52,0.44-0.697,0.848-0.732,0.826c-0.011-0.005,0.024-0.108,0.116-0.283
						c0.095-0.172,0.259-0.41,0.519-0.654c0.508-0.496,1.454-0.935,2.541-0.956c1.089-0.044,2.055,0.383,2.565,0.874
						c0.264,0.238,0.432,0.473,0.533,0.641C177.06,89.03,177.098,89.133,177.088,89.138z"/>
				</g>
			</g>
			<g>
				<g>
					<path style="fill:#263238;" d="M173.909,85.092c-0.018-0.036,0.086-0.113,0.171-0.26l0.004,0.111
						c-0.072-0.072-0.148-0.168-0.208-0.282c-0.186-0.346-0.146-0.675-0.09-0.671c0.059-0.003,0.113,0.277,0.274,0.573
						c0.053,0.1,0.11,0.189,0.161,0.264l0.044,0.066l-0.04,0.045C174.076,85.106,173.921,85.125,173.909,85.092z"/>
				</g>
			</g>
			<g>
				<g>
					<path style="fill:#263238;" d="M175.094,84.316c-0.046,0.032-0.161-0.035-0.283-0.015c-0.123,0.013-0.216,0.108-0.269,0.09
						c-0.061-0.004-0.024-0.25,0.241-0.296C175.05,84.068,175.151,84.295,175.094,84.316z"/>
				</g>
			</g>
			<g>
				<g>
					<path style="fill:#263238;" d="M173.026,84.516c-0.037,0.046-0.15,0.018-0.279,0.021c-0.129-0.003-0.243,0.026-0.28-0.02
						c-0.04-0.041,0.073-0.188,0.279-0.188C172.952,84.328,173.066,84.475,173.026,84.516z"/>
				</g>
			</g>
			<g>
				<g>
					<path style="fill:#263238;" d="M173.213,87.591c-0.057,0.009-0.124-0.201-0.151-0.467c-0.027-0.267-0.002-0.489,0.055-0.496
						c0.057-0.007,0.125,0.202,0.151,0.467C173.295,87.36,173.27,87.582,173.213,87.591z"/>
				</g>
			</g>
			<g>
				<g>
					<path style="fill:#263238;" d="M174.866,86.565c0.057,0.009,0.071,0.225,0.031,0.484c-0.04,0.258-0.118,0.461-0.175,0.452
						c-0.057-0.009-0.071-0.225-0.031-0.484C174.731,86.759,174.809,86.556,174.866,86.565z"/>
				</g>
			</g>
			<g>
				<g>
					<path style="fill:#263238;" d="M171.62,88.179c-0.059-0.018,0.091-0.612,0.132-1.357c0.047-0.745-0.032-1.352,0.028-1.363
						c0.052-0.013,0.228,0.599,0.18,1.375C171.917,87.611,171.67,88.199,171.62,88.179z"/>
				</g>
			</g>
			<g>
				<g>
					<path style="fill:#263238;" d="M176.245,88.019c-0.057,0.011-0.198-0.654-0.316-1.485c-0.118-0.831-0.167-1.509-0.11-1.514
						c0.057-0.005,0.199,0.66,0.316,1.485C176.252,87.33,176.301,88.008,176.245,88.019z"/>
				</g>
			</g>
		</g>
	</g>
</g>
<g id="Folder">
	<path style="fill:#E8505B;" d="M213.681,155.307l2.063,33.422c0.074,1.19,1.061,2.118,2.253,2.118h60.169
		c1.247,0,2.258-1.011,2.258-2.257v-26.028c0-1.252-1.02-2.265-2.272-2.257l-37.003,0.238c-0.598,0.004-1.173-0.23-1.599-0.649
		l-6.431-6.335c-0.422-0.416-0.991-0.649-1.584-0.649h-15.6C214.633,152.91,213.601,154.008,213.681,155.307z"/>
	<path style="opacity:0.4;" d="M213.681,155.307l2.063,33.422c0.074,1.19,1.061,2.118,2.253,2.118h60.169
		c1.247,0,2.258-1.011,2.258-2.257v-26.028c0-1.252-1.02-2.265-2.272-2.257l-37.003,0.238c-0.598,0.004-1.173-0.23-1.599-0.649
		l-6.431-6.335c-0.422-0.416-0.991-0.649-1.584-0.649h-15.6C214.633,152.91,213.601,154.008,213.681,155.307z"/>
	<g>
		<path style="fill:#E8505B;" d="M209.88,169.279l5.019,40.966c0.089,0.728,0.707,1.275,1.441,1.275h64.07
			c0.758,0,1.388-0.583,1.447-1.338l3.226-40.966c0.066-0.844-0.601-1.566-1.447-1.566h-72.315
			C210.449,167.651,209.774,168.414,209.88,169.279z"/>
	</g>
	<g>
		<path style="fill:#E8505B;" d="M130.77,173.646l2.159,28.437c0.077,1.013,0.929,1.791,1.944,1.777l51.239-0.725
			c1.062-0.015,1.91-0.888,1.895-1.95l-0.314-22.165c-0.015-1.067-0.896-1.917-1.962-1.895l-31.509,0.649
			c-0.509,0.01-1.002-0.181-1.369-0.533l-5.553-5.317c-0.365-0.349-0.852-0.541-1.357-0.534l-13.284,0.188
			C131.551,171.593,130.686,172.54,130.77,173.646z"/>
		
			<rect x="131.868" y="174.129" transform="matrix(0.9999 -0.0141 0.0141 0.9999 -2.6844 2.281)" style="fill:#F5F5F5;" width="55.99" height="33.457"/>
		<path style="fill:#E8505B;" d="M127.223,177.591l4.768,34.826c0.085,0.619,0.618,1.077,1.242,1.068l54.561-0.772
			c0.645-0.009,1.175-0.513,1.216-1.157l2.253-34.925c0.046-0.72-0.53-1.326-1.251-1.316l-61.582,0.871
			C127.688,176.198,127.122,176.856,127.223,177.591z"/>
	</g>
	<g>
		<path style="fill:#E8505B;" d="M312.488,171.228l2.109,27.78c0.075,0.99,0.907,1.75,1.899,1.736l50.055-0.708
			c1.037-0.015,1.866-0.867,1.852-1.905l-0.306-21.652c-0.015-1.042-0.875-1.873-1.917-1.851l-30.78,0.634
			c-0.497,0.01-0.978-0.177-1.338-0.521l-5.425-5.194c-0.356-0.341-0.832-0.528-1.326-0.521l-12.977,0.184
			C313.252,169.223,312.406,170.149,312.488,171.228z"/>
		<path style="opacity:0.4;" d="M312.488,171.228l2.109,27.78c0.075,0.99,0.907,1.75,1.899,1.736l50.055-0.708
			c1.037-0.015,1.866-0.867,1.852-1.905l-0.306-21.652c-0.015-1.042-0.875-1.873-1.917-1.851l-30.78,0.634
			c-0.497,0.01-0.978-0.177-1.338-0.521l-5.425-5.194c-0.356-0.341-0.832-0.528-1.326-0.521l-12.977,0.184
			C313.252,169.223,312.406,170.149,312.488,171.228z"/>
		
			<rect x="313.562" y="171.7" transform="matrix(0.9999 -0.0141 0.0141 0.9999 -2.6265 4.8424)" style="fill:#EBEBEB;" width="54.696" height="32.684"/>
		<path style="fill:#E8505B;" d="M309.024,175.083l4.658,34.021c0.083,0.605,0.604,1.053,1.214,1.044l53.299-0.754
			c0.63-0.009,1.148-0.501,1.188-1.13l2.201-34.118c0.045-0.703-0.518-1.295-1.222-1.285l-60.158,0.851
			C309.478,173.721,308.926,174.364,309.024,175.083z"/>
	</g>
</g>
<g id="Character">
	<g>
		<path style="fill:#FFBE9D;" d="M231.384,217.687l-5.362,2.556l-4.932-7.739l2.884-5.975c0.274-0.554,0.567-1.177,0.874-1.891
			c0.358-0.833,0.57-1.724,0.636-2.628c0.08-1.096,0.129-2.556-0.086-3.363c-0.266-0.997,0.789-1.814,1.507-1.233
			c0.717,0.582,1.517,3.311,0.985,6.603c-0.533,3.291,3.301-0.201,4.72-1.448c1.419-1.247,5.985-4.896,6.702-4.754
			c1.051,0.208,1.022,1.403-0.423,2.615c-1.463,1.227-5.531,5.157-4.857,5.891c0,0,0.011,0.001,0.032,0.003
			c1.713,0.179,3.119,1.447,3.497,3.127c0.365,1.622,0.66,3.86-0.252,4.598C235.591,215.442,231.384,217.687,231.384,217.687z"/>
		<g>
			<g>
				<g>
					<path style="fill:#FFBE9D;" d="M126.31,148.725l-0.126,41.278l17.709,0.845l0.512-10.04c0,0,6.29,1.249,7.913-4.593
						c1.037-3.732,0.778-32.57,0.778-32.57L126.31,148.725z"/>
				</g>
				<g>
					<path style="fill:#263238;" d="M157.093,147.715c-1.193,2.467-6.873,6.98-6.873,6.98l-2.566,6.876
						c-2.229-1.745-5.222-1.645-5.788,2.272c-0.409,2.83,3.11,3.402,3.11,3.402c-2.049,3.486-3.438,6.306-6.421,9.622
						c-3.228,3.589-5.037,3.951-8.538,4.009h-3.86c0,0-7.9-6.601-6.338-23.988c1.561-17.386,17.192-12.314,20.923-16.658
						C146.818,133.157,161.075,139.481,157.093,147.715z"/>
				</g>
			</g>
			<g>
				<g>
					<path style="fill:#455A64;" d="M120.697,171.426c0,0,0.171-0.009,0.494-0.005c0.322-0.018,0.801-0.031,1.4-0.165
						c1.194-0.24,2.887-0.942,4.527-2.405c1.657-1.448,3.118-3.651,4.592-6.152c1.496-2.461,3.141-5.359,5.964-7.31
						c1.406-0.961,2.988-1.525,4.521-1.926c1.54-0.4,3.053-0.646,4.479-0.923c2.848-0.524,5.404-1.316,7.146-2.666
						c1.747-1.334,2.619-2.992,2.896-4.172c0.286-1.198,0.121-1.892,0.16-1.889c0,0,0.026,0.168,0.055,0.493
						c-0.002,0.324,0.01,0.811-0.136,1.415c-0.256,1.202-1.122,2.9-2.885,4.27c-1.76,1.388-4.345,2.202-7.199,2.737
						c-2.826,0.578-6.118,0.96-8.92,2.833c-2.77,1.912-4.413,4.78-5.917,7.237c-1.483,2.497-2.969,4.713-4.659,6.164
						c-1.671,1.466-3.397,2.156-4.609,2.374C121.384,171.563,120.697,171.426,120.697,171.426z"/>
				</g>
			</g>
		</g>
		<g>
			<g>
				<path style="fill:#FFBE9D;" d="M136.461,351.118l7.198,110.127l16.712-1.847c0,0,0.41-107.36-0.375-107.3
					C159.212,352.159,136.461,351.118,136.461,351.118z"/>
			</g>
			<g>
				<polygon style="fill:#FFBE9D;" points="101.425,350.462 82.625,459.643 97.481,461.901 123.508,355.651 				"/>
			</g>
			<g>
				<polygon style="fill:#263238;" points="106.967,281.846 81.334,429.041 111.05,435.479 133.61,312.794 138.663,432.164 
					166.262,432.164 161.302,277.338 				"/>
				<path style="fill:#263238;" d="M111.449,436.077l-30.69-6.648l0.082-0.473l25.7-147.576l0.385-0.031l54.86-4.552l0.017,0.526
					l4.977,155.342h-28.595l-0.02-0.478l-4.865-114.933L111.449,436.077z M81.908,428.655l28.744,6.227l23.27-126.548l5.221,123.331
					h26.604l-4.927-153.784l-53.426,4.433L81.908,428.655z"/>
			</g>
			<g>
				<g>
					<path style="fill:#455A64;" d="M141.453,312.639c0.001,0.036-0.358,0.085-1.009,0.144c-0.768,0.057-1.687,0.125-2.758,0.204
						c-2.329,0.16-5.549,0.324-9.085,0.669c-3.536,0.353-6.726,0.823-9.042,1.122c-1.066,0.132-1.98,0.245-2.745,0.34
						c-0.65,0.07-1.012,0.091-1.017,0.056c-0.006-0.036,0.346-0.125,0.986-0.256c0.64-0.132,1.57-0.304,2.72-0.504
						c2.302-0.392,5.489-0.921,9.046-1.276c3.556-0.348,6.785-0.453,9.119-0.519c1.168-0.029,2.113-0.042,2.767-0.038
						C141.089,312.584,141.452,312.603,141.453,312.639z"/>
				</g>
			</g>
			<g>
				<g>
					<path style="fill:#455A64;" d="M161.875,301.303c0.005,0.032-0.236,0.109-0.685,0.184c-0.449,0.076-1.111,0.131-1.929,0.095
						c-1.624-0.061-3.928-0.607-5.986-2.085c-2.058-1.48-3.31-3.49-3.885-5.01c-0.295-0.764-0.454-1.409-0.525-1.859
						c-0.072-0.45-0.077-0.703-0.044-0.708c0.09-0.018,0.25,0.976,0.908,2.423c0.644,1.438,1.89,3.321,3.85,4.731
						c1.961,1.408,4.142,1.989,5.711,2.141C160.871,301.377,161.865,301.212,161.875,301.303z"/>
				</g>
			</g>
			<g>
				<g>
					<path style="fill:#455A64;" d="M166.654,425.991c-0.007,0.144-6.242-0.057-13.924-0.448
						c-7.684-0.391-13.906-0.824-13.899-0.968c0.007-0.143,6.241,0.057,13.925,0.448
						C160.438,425.414,166.661,425.847,166.654,425.991z"/>
				</g>
			</g>
			<g>
				<g>
					<path style="fill:#455A64;" d="M112.898,426.731c-0.012,0.034-0.431-0.072-1.179-0.293c-0.85-0.255-1.907-0.572-3.16-0.948
						c-2.667-0.801-6.362-1.865-10.479-2.904c-4.119-1.036-7.878-1.851-10.605-2.41c-1.281-0.263-2.362-0.484-3.231-0.663
						c-0.763-0.16-1.182-0.265-1.176-0.301c0.006-0.035,0.436,0.002,1.21,0.101c0.774,0.096,1.89,0.266,3.266,0.501
						c2.75,0.467,6.533,1.227,10.664,2.267c4.129,1.042,7.82,2.166,10.463,3.057c1.322,0.445,2.385,0.825,3.113,1.107
						C112.512,426.526,112.909,426.697,112.898,426.731z"/>
				</g>
			</g>
		</g>
		<g>
			<g>
				<g>
					<path style="fill:#455A64;" d="M104.329,291.722h58.151l-2.252-47.004c-0.37-9.234-0.314-10.336-0.543-18.861
						c0,0,8.681,10.496,15.508,17.856c4.125,4.448,10.664,5.691,16.149,3.097l35.728-24.925l-6.69-17.114l-32.468,19.874
						c-1.487-0.924-14.129-18.955-22.864-27.76c-5.59-5.635-13.129-8.878-21.063-9.109c-6.005-0.175-13.253,0.103-19.724,0.791
						c-9.84,1.046-17.538,8.949-18.365,18.81c-0.633,7.546-0.124,16.306-0.124,31.195L104.329,291.722z"/>
				</g>
			</g>
			<g>
				<path style="fill:#455A64;" d="M113.685,192.878c-5.487,2.434-28.385,31.769-30.004,50.826
					c-1.207,14.204,26.426,12.658,26.426,12.658s1.885-58.28,1.061-57.455"/>
			</g>
			<g>
				<g>
					<path style="fill:#263238;" d="M108.081,197.848c0,0-0.005,0.211-0.035,0.609c-0.036,0.455-0.083,1.032-0.14,1.744
						c-0.117,1.514-0.273,3.707-0.419,6.419c-0.309,5.423-0.572,12.923-0.83,21.207c-0.257,8.288-0.491,15.79-0.766,21.217
						c-0.132,2.714-0.272,4.908-0.386,6.423c-0.059,0.712-0.107,1.289-0.145,1.744c-0.035,0.398-0.064,0.607-0.064,0.607
						s0.001-0.211,0.023-0.61c0.027-0.455,0.062-1.033,0.105-1.746c0.079-1.585,0.187-3.763,0.319-6.424
						c0.238-5.427,0.448-12.929,0.705-21.217c0.257-8.285,0.544-15.786,0.891-21.209c0.165-2.712,0.343-4.904,0.486-6.417
						c0.073-0.71,0.132-1.287,0.178-1.741C108.048,198.055,108.081,197.848,108.081,197.848z"/>
				</g>
			</g>
			<g>
				<g>
					<path style="fill:#263238;" d="M105.819,235.238c0.022,0.017-0.272,0.438-0.784,1.091c-0.511,0.654-1.243,1.536-2.092,2.475
						c-0.85,0.939-1.656,1.755-2.255,2.329c-0.599,0.574-0.989,0.908-1.008,0.889c-0.021-0.022,0.332-0.394,0.904-0.993
						c0.571-0.599,1.357-1.429,2.205-2.365c0.847-0.936,1.594-1.801,2.133-2.429C105.461,235.607,105.796,235.219,105.819,235.238z"
						/>
				</g>
			</g>
			<g>
				<g>
					<path style="fill:#263238;" d="M186.572,230.422c-0.028-0.005,0.02-0.327,0.121-0.842c0.101-0.516,0.255-1.226,0.438-2.008
						c0.183-0.782,0.359-1.487,0.497-1.994c0.138-0.507,0.237-0.817,0.264-0.809c0.028,0.008-0.021,0.331-0.122,0.847
						c-0.101,0.516-0.255,1.224-0.437,2.004c-0.182,0.779-0.358,1.482-0.496,1.989C186.7,230.115,186.601,230.427,186.572,230.422z"
						/>
				</g>
			</g>
			<g>
				<g>
					<path style="fill:#263238;" d="M189.828,230.922c-0.056,0.013-0.432-1.426-0.84-3.213c-0.408-1.788-0.693-3.247-0.637-3.26
						c0.056-0.013,0.432,1.426,0.84,3.214C189.599,229.45,189.884,230.91,189.828,230.922z"/>
				</g>
			</g>
			<g>
				<g>
					<path style="fill:#263238;" d="M161.193,227.37c0,0-0.121-0.1-0.336-0.305c-0.258-0.25-0.566-0.548-0.935-0.905
						c-0.806-0.791-1.971-1.939-3.358-3.409c-1.381-1.474-2.992-3.272-4.564-5.44c-1.566-2.165-3.091-4.72-4.151-7.631
						c-1.074-2.903-1.532-5.879-1.367-8.56c0.123-2.672,0.632-5.085,1.541-6.909c0.891-1.837,2.109-3.022,3.009-3.695
						c0.459-0.334,0.825-0.577,1.09-0.715c0.258-0.148,0.399-0.217,0.399-0.217c0.019,0.031-0.55,0.303-1.439,0.996
						c-0.879,0.688-2.063,1.874-2.926,3.695c-0.88,1.809-1.37,4.197-1.482,6.854c-0.152,2.656,0.306,5.598,1.371,8.479
						c2.141,5.802,5.934,10.085,8.626,13.042c1.371,1.481,2.52,2.644,3.308,3.452c0.358,0.368,0.657,0.675,0.907,0.932
						C161.092,227.25,161.193,227.37,161.193,227.37z"/>
				</g>
			</g>
			<g>
				<g>
					<path style="fill:#263238;" d="M165.344,197.506c0,0.144-12.565,0.26-28.062,0.26c-15.502,0-28.064-0.117-28.064-0.26
						s12.563-0.26,28.064-0.26C152.779,197.245,165.344,197.362,165.344,197.506z"/>
				</g>
			</g>
			<g>
				<g>
					<path style="fill:#263238;" d="M172.248,205.648c0,0.144-15.62,0.26-34.883,0.26c-19.27,0-34.886-0.117-34.886-0.26
						s15.616-0.26,34.886-0.26C156.629,205.388,172.248,205.505,172.248,205.648z"/>
				</g>
			</g>
			<g>
				<g>
					<path style="fill:#263238;" d="M180.816,214.072c0,0.144-18.795,0.26-41.974,0.26c-23.187,0-41.978-0.117-41.978-0.26
						c0-0.144,18.791-0.26,41.978-0.26C162.021,213.811,180.816,213.928,180.816,214.072z"/>
				</g>
			</g>
			<g>
				<g>
					<path style="fill:#263238;" d="M186.712,223.056c0,0.144-21.498,0.26-48.01,0.26c-26.522,0-48.015-0.117-48.015-0.26
						c0-0.144,21.493-0.26,48.015-0.26C165.215,222.796,186.712,222.913,186.712,223.056z"/>
				</g>
			</g>
			<g>
				<g>
					<path style="fill:#263238;" d="M159.866,233.445c0,0.018-0.259,0.035-0.751,0.052c-0.543,0.012-1.259,0.029-2.155,0.049
						c-1.928,0.02-4.621,0.048-7.924,0.083c-6.741,0.02-15.96,0.047-26.144,0.076c-10.188-0.03-19.408-0.057-26.148-0.076
						c-3.303-0.035-5.996-0.063-7.924-0.083c-0.895-0.02-1.611-0.037-2.154-0.049c-0.493-0.017-0.751-0.035-0.751-0.052
						c0-0.018,0.259-0.036,0.751-0.052c0.543-0.012,1.259-0.029,2.154-0.049c1.928-0.02,4.621-0.048,7.924-0.083
						c6.741-0.02,15.961-0.046,26.148-0.076c10.184,0.03,19.403,0.057,26.144,0.076c3.303,0.035,5.996,0.063,7.924,0.083
						c0.895,0.02,1.612,0.036,2.155,0.049C159.608,233.41,159.866,233.427,159.866,233.445z"/>
				</g>
			</g>
			<g>
				<g>
					<path style="fill:#263238;" d="M210.578,234.007c0,0.144-9.932,0.26-22.18,0.26c-12.253,0-22.182-0.117-22.182-0.26
						c0-0.144,9.93-0.26,22.182-0.26C200.646,233.746,210.578,233.863,210.578,234.007z"/>
				</g>
			</g>
			<g>
				<g>
					<path style="fill:#263238;" d="M196.418,243.272c0,0.144-4.813,0.26-10.749,0.26c-5.938,0-10.75-0.117-10.75-0.26
						c0-0.144,4.812-0.26,10.75-0.26C191.605,243.012,196.418,243.128,196.418,243.272z"/>
				</g>
			</g>
			<g>
				<g>
					<path style="fill:#263238;" d="M224.055,223.899c0,0.144-7.354,0.26-16.425,0.26c-9.073,0-16.426-0.117-16.426-0.26
						s7.353-0.26,16.426-0.26C216.701,223.638,224.055,223.755,224.055,223.899z"/>
				</g>
			</g>
			<g>
				<g>
					<path style="fill:#263238;" d="M160.55,244.329c0,0.144-17.306,0.261-38.65,0.261c-21.351,0-38.653-0.117-38.653-0.261
						c0-0.144,17.303-0.26,38.653-0.26C143.244,244.069,160.55,244.186,160.55,244.329z"/>
				</g>
			</g>
			<g>
				<g>
					<path style="fill:#263238;" d="M161.193,256.412c0,0.144-12.619,0.26-28.183,0.26c-15.569,0-28.185-0.117-28.185-0.26
						c0-0.144,12.617-0.26,28.185-0.26C148.573,256.151,161.193,256.268,161.193,256.412z"/>
				</g>
			</g>
			<g>
				<g>
					<path style="fill:#263238;" d="M161.193,266.15c0,0.144-12.619,0.26-28.183,0.26c-15.569,0-28.185-0.117-28.185-0.26
						c0-0.144,12.617-0.26,28.185-0.26C148.573,265.89,161.193,266.007,161.193,266.15z"/>
				</g>
			</g>
			<g>
				<g>
					<path style="fill:#263238;" d="M161.193,277.338c0,0.144-12.619,0.26-28.183,0.26c-15.569,0-28.185-0.117-28.185-0.26
						s12.617-0.26,28.185-0.26C148.573,277.078,161.193,277.194,161.193,277.338z"/>
				</g>
			</g>
			<g>
				<g>
					<path style="fill:#263238;" d="M224.202,216.911c0,0.144-5.154,0.26-11.511,0.26c-6.359,0-11.512-0.117-11.512-0.26
						s5.153-0.26,11.512-0.26C219.047,216.65,224.202,216.767,224.202,216.911z"/>
				</g>
			</g>
		</g>
		<g>
			<polygon style="fill:#E8505B;" points="82.911,456.414 80.388,466.632 97.774,468.587 98.397,458.463 			"/>
			<g>
				<path style="fill:#263238;" d="M90.76,456.915c0.143,0.021-0.113,2.122-0.572,4.691c-0.459,2.57-0.947,4.636-1.09,4.615
					c-0.143-0.021,0.113-2.121,0.572-4.691C90.13,458.96,90.618,456.894,90.76,456.915z"/>
			</g>
			<g>
				<path style="fill:#263238;" d="M97.842,467.474c-0.016,0.067-0.974-0.064-2.518-0.288c-1.73-0.255-3.774-0.557-6.031-0.89
					c-2.356-0.357-4.485-0.718-6.015-1.029c-1.531-0.309-2.463-0.557-2.448-0.619c0.016-0.067,0.974,0.064,2.518,0.288
					c1.73,0.255,3.774,0.557,6.032,0.89c2.355,0.357,4.484,0.718,6.014,1.029C96.924,467.164,97.857,467.412,97.842,467.474z"/>
			</g>
		</g>
		<g>
			<g>
				<g>
					<g>
						<g>
							<path style="fill:#E8505B;" d="M162.399,460.935l-0.058-2.012l-18.95,0.469l0.122,6.635l1.171,0.049
								c5.212,0.171,26.514,0.505,29.97-0.628C178.509,464.183,162.399,460.935,162.399,460.935z"/>
						</g>
					</g>
					<g style="opacity:0.4;">
						<g>
							<path style="fill:#FFFFFF;" d="M150.349,465.724c-0.304-1.57-1.214-3.015-2.498-3.968c-1.284-0.953-2.85-1.435-4.441-1.272
								l0.115,5.272L150.349,465.724z"/>
						</g>
					</g>
				</g>
				<g style="opacity:0.4;">
					<g>
						<path style="fill:#FFFFFF;" d="M170.276,462.801c0,0,5.654,1.494,4.975,2.435c-0.68,0.941-22.219,1.414-31.738,0.791
							l0.021-0.422l25.129-0.337C168.662,465.267,169.179,462.872,170.276,462.801z"/>
					</g>
				</g>
				<g>
					<g>
						<g>
							<path style="fill:#263238;" d="M143.237,465.599c0,0.008,0.112,0.017,0.325,0.028c0.28,0.011,0.587,0.023,0.933,0.036
								c0.933,0.02,2.079,0.044,3.432,0.073c2.898,0.041,6.903,0.044,11.325-0.049c4.423-0.094,8.425-0.267,11.319-0.43
								c1.35-0.086,2.495-0.159,3.426-0.218c0.345-0.028,0.651-0.053,0.93-0.075c0.212-0.02,0.324-0.034,0.323-0.042
								c-0.001-0.008-0.113-0.009-0.326-0.004c-0.28,0.01-0.587,0.02-0.933,0.033c-0.932,0.039-2.077,0.088-3.428,0.145
								c-2.895,0.122-6.895,0.269-11.316,0.363c-4.419,0.093-8.422,0.116-11.319,0.117c-1.353,0-2.499,0-3.432,0
								c-0.346,0.003-0.653,0.005-0.933,0.007C143.349,465.586,143.237,465.591,143.237,465.599z"/>
						</g>
					</g>
				</g>
				<g>
					<g>
						<g>
							<path style="fill:#263238;" d="M168.664,465.56c0.07,0.007,0.106-0.813,0.605-1.651c0.484-0.847,1.181-1.281,1.14-1.338
								c-0.015-0.057-0.816,0.317-1.338,1.223C168.538,464.694,168.607,465.576,168.664,465.56z"/>
						</g>
					</g>
				</g>
				<g>
					<g>
						<g>
							<path style="fill:#263238;" d="M163.035,462.858c0.054,0.033,0.313-0.297,0.579-0.737s0.437-0.822,0.383-0.855
								c-0.054-0.033-0.313,0.297-0.579,0.737C163.153,462.443,162.981,462.826,163.035,462.858z"/>
						</g>
					</g>
				</g>
				<g>
					<g>
						<g>
							<path style="fill:#263238;" d="M161.49,462.084c0.043,0.046,0.337-0.159,0.655-0.458c0.319-0.299,0.542-0.579,0.499-0.625
								c-0.043-0.046-0.337,0.159-0.655,0.458C161.67,461.759,161.447,462.038,161.49,462.084z"/>
						</g>
					</g>
				</g>
				<g>
					<g>
						<g>
							<path style="fill:#263238;" d="M160.485,460.325c0.001,0.063,0.443,0.11,0.987,0.104c0.545-0.006,0.985-0.062,0.985-0.125
								c-0.001-0.063-0.443-0.109-0.987-0.104C160.925,460.206,160.485,460.262,160.485,460.325z"/>
						</g>
					</g>
				</g>
				<g>
					<g>
						<g>
							<path style="fill:#263238;" d="M160.126,459.077c-0.02,0.057,0.465,0.263,1.105,0.295c0.641,0.036,1.145-0.118,1.131-0.176
								c-0.012-0.065-0.51-0.017-1.118-0.052C160.635,459.113,160.145,459.013,160.126,459.077z"/>
						</g>
					</g>
				</g>
				<g>
					<g>
						<g>
							<path style="fill:#263238;" d="M163.639,461.199c-0.001,0.026,0.466,0.072,1.212-0.034c0.372-0.053,0.812-0.151,1.284-0.313
								c0.234-0.089,0.48-0.158,0.732-0.321c0.118-0.083,0.249-0.198,0.292-0.383c0.046-0.183-0.055-0.385-0.194-0.48
								c-1.172-0.575-2.318,0.102-2.735,0.711c-0.23,0.311-0.332,0.611-0.378,0.818c-0.044,0.208-0.038,0.327-0.024,0.328
								c0.043,0.015,0.071-0.479,0.529-1.046c0.226-0.278,0.571-0.551,1.021-0.696c0.425-0.136,1.034-0.184,1.447,0.067
								c0.196,0.138,0.126,0.366-0.086,0.499c-0.197,0.133-0.453,0.217-0.675,0.306c-0.455,0.168-0.88,0.28-1.241,0.352
								C164.1,461.15,163.638,461.161,163.639,461.199z"/>
						</g>
					</g>
				</g>
				<g>
					<g>
						<g>
							<path style="fill:#263238;" d="M163.954,461.252c0.018,0.013,0.19-0.301,0.121-0.845c-0.035-0.267-0.141-0.582-0.35-0.878
								c-0.22-0.264-0.503-0.629-1.023-0.596c-0.28,0.042-0.41,0.365-0.361,0.568c0.027,0.212,0.126,0.392,0.218,0.537
								c0.187,0.299,0.396,0.54,0.589,0.721c0.388,0.363,0.692,0.499,0.704,0.475c0.021-0.03-0.246-0.212-0.589-0.589
								c-0.17-0.188-0.356-0.428-0.523-0.716c-0.172-0.253-0.296-0.71,0.007-0.772c0.303-0.036,0.619,0.259,0.81,0.497
								c0.196,0.258,0.308,0.538,0.36,0.781C164.02,460.927,163.914,461.244,163.954,461.252z"/>
						</g>
					</g>
				</g>
				<g>
					<g>
						<g>
							<path style="fill:#263238;" d="M143.509,460.429c0.005,0.043,0.539-0.063,1.394,0.019c0.847,0.075,2.029,0.396,3.068,1.187
								c1.039,0.792,1.662,1.847,1.959,2.644c0.306,0.802,0.346,1.345,0.388,1.339c0.014-0.001,0.018-0.137-0.008-0.381
								c-0.025-0.244-0.091-0.595-0.228-1.013c-0.266-0.832-0.89-1.945-1.973-2.771c-1.084-0.824-2.323-1.131-3.195-1.166
								c-0.44-0.021-0.796,0.008-1.037,0.049C143.636,460.376,143.506,460.415,143.509,460.429z"/>
						</g>
					</g>
				</g>
				<g>
					<g>
						<g>
							<path style="fill:#263238;" d="M152.683,463.833c-0.007,0.059,1.227,0.234,2.76,0.213c1.534-0.017,2.762-0.222,2.754-0.282
								c-0.008-0.066-1.238,0.036-2.757,0.053C153.921,463.838,152.689,463.767,152.683,463.833z"/>
						</g>
					</g>
				</g>
				<g>
					<g>
						<g>
							<path style="fill:#263238;" d="M148.985,463.909c-0.045,0.047,0.107,0.259,0.238,0.539c0.136,0.278,0.206,0.529,0.271,0.523
								c0.061-0.002,0.091-0.3-0.065-0.622C149.276,464.026,149.025,463.862,148.985,463.909z"/>
						</g>
					</g>
				</g>
				<g>
					<g>
						<g>
							<path style="fill:#263238;" d="M147.554,462.205c-0.044,0.046,0.082,0.239,0.282,0.432c0.2,0.194,0.397,0.314,0.441,0.269
								c0.044-0.045-0.082-0.239-0.282-0.433C147.795,462.28,147.598,462.16,147.554,462.205z"/>
						</g>
					</g>
				</g>
				<g>
					<g>
						<g>
							<path style="fill:#263238;" d="M145.543,461.456c0.015,0.064,0.265,0.056,0.544,0.147c0.281,0.085,0.482,0.235,0.531,0.191
								c0.05-0.036-0.115-0.301-0.462-0.409C145.809,461.275,145.522,461.398,145.543,461.456z"/>
						</g>
					</g>
				</g>
				<g>
					<g>
						<g>
							<path style="fill:#263238;" d="M144.115,461.114c-0.021,0.059,0.089,0.154,0.247,0.211c0.158,0.057,0.303,0.056,0.325-0.004
								c0.021-0.059-0.089-0.154-0.247-0.211C144.282,461.052,144.137,461.054,144.115,461.114z"/>
						</g>
					</g>
				</g>
			</g>
		</g>
	</g>
</g>
</svg>
